M48
; DRILL file {KiCad 9.0.3} date 2025-08-28T14:22:11-0400
; FORMAT={-:-/ absolute / metric / decimal}
; #@! TF.CreationDate,2025-08-28T14:22:11-04:00
; #@! TF.GenerationSoftware,Kicad,Pcbnew,9.0.3
; #@! TF.FileFunction,Plated,1,4,PTH
FMAT,2
METRIC
; #@! TA.AperFunction,Plated,PTH,ViaDrill
T1C0.300
%
G90
G05
T1
X96.0Y-46.0
X96.0Y-56.0
X96.0Y-66.0
X96.055Y-50.0
X96.055Y-60.0
X96.055Y-62.0
X97.325Y-50.0
X97.325Y-60.0
X97.325Y-70.0
X97.75Y-71.5
X98.0Y-40.0
X98.595Y-42.0
X98.595Y-50.0
X98.595Y-52.0
X98.595Y-60.0
X98.595Y-62.0
X98.595Y-70.0
X99.865Y-42.0
X99.865Y-50.0
X99.865Y-52.0
X99.865Y-60.0
X99.865Y-62.0
X99.865Y-70.0
X101.135Y-42.0
X101.135Y-50.0
X101.135Y-52.0
X101.135Y-60.0
X101.135Y-62.0
X101.135Y-70.0
X102.405Y-42.0
X104.25Y-45.25
X104.25Y-55.25
X104.25Y-65.25
X106.0Y-43.525
X106.0Y-46.0
X106.0Y-53.525
X106.0Y-56.0
X106.0Y-63.525
X106.0Y-66.0
X113.0Y-47.25
X113.0Y-57.25
X113.0Y-67.25
X116.0Y-46.0
X116.0Y-56.0
X116.0Y-66.0
X123.0Y-47.25
X123.0Y-57.25
X123.0Y-67.25
X126.0Y-46.0
X126.0Y-56.0
X126.0Y-66.0
X133.0Y-47.25
X133.0Y-57.25
X133.0Y-67.25
X143.0Y-47.25
X143.0Y-57.25
X143.0Y-67.25
X153.0Y-47.25
X153.0Y-67.25
X163.0Y-47.25
X163.0Y-57.25
X163.0Y-67.25
X171.0Y-40.75
X171.0Y-43.5
X171.0Y-53.5
X171.0Y-63.5
X171.0Y-71.25
X173.0Y-47.25
X173.0Y-57.25
X173.0Y-67.25
M30
