%TF.GenerationSoftware,KiCad,Pcbnew,9.0.3*%
%TF.CreationDate,2025-08-28T14:22:23-04:00*%
%TF.ProjectId,Shift-LED-Board,53686966-742d-44c4-9544-2d426f617264,rev?*%
%TF.SameCoordinates,Original*%
%TF.FileFunction,Soldermask,Top*%
%TF.FilePolarity,Negative*%
%FSLAX46Y46*%
G04 Gerber Fmt 4.6, Leading zero omitted, Abs format (unit mm)*
G04 Created by KiCad (PCBNEW 9.0.3) date 2025-08-28 14:22:23*
%MOMM*%
%LPD*%
G01*
G04 APERTURE LIST*
G04 Aperture macros list*
%AMRoundRect*
0 Rectangle with rounded corners*
0 $1 Rounding radius*
0 $2 $3 $4 $5 $6 $7 $8 $9 X,Y pos of 4 corners*
0 Add a 4 corners polygon primitive as box body*
4,1,4,$2,$3,$4,$5,$6,$7,$8,$9,$2,$3,0*
0 Add four circle primitives for the rounded corners*
1,1,$1+$1,$2,$3*
1,1,$1+$1,$4,$5*
1,1,$1+$1,$6,$7*
1,1,$1+$1,$8,$9*
0 Add four rect primitives between the rounded corners*
20,1,$1+$1,$2,$3,$4,$5,0*
20,1,$1+$1,$4,$5,$6,$7,0*
20,1,$1+$1,$6,$7,$8,$9,0*
20,1,$1+$1,$8,$9,$2,$3,0*%
G04 Aperture macros list end*
%ADD10RoundRect,0.200000X-0.200000X-0.275000X0.200000X-0.275000X0.200000X0.275000X-0.200000X0.275000X0*%
%ADD11RoundRect,0.243750X0.243750X0.456250X-0.243750X0.456250X-0.243750X-0.456250X0.243750X-0.456250X0*%
%ADD12R,1.500000X1.500000*%
%ADD13RoundRect,0.200000X0.200000X0.275000X-0.200000X0.275000X-0.200000X-0.275000X0.200000X-0.275000X0*%
G04 APERTURE END LIST*
D10*
%TO.C,R8*%
X167175000Y-46000000D03*
X168825000Y-46000000D03*
%TD*%
%TO.C,R23*%
X157175000Y-66000000D03*
X158825000Y-66000000D03*
%TD*%
D11*
%TO.C,D15*%
X162937500Y-56000000D03*
X161062500Y-56000000D03*
%TD*%
D10*
%TO.C,R19*%
X117175000Y-66000000D03*
X118825000Y-66000000D03*
%TD*%
%TO.C,R12*%
X127175000Y-56000000D03*
X128825000Y-56000000D03*
%TD*%
%TO.C,R3*%
X117175000Y-46000000D03*
X118825000Y-46000000D03*
%TD*%
D12*
%TO.C,TP8*%
X96250000Y-63500000D03*
%TD*%
D11*
%TO.C,D6*%
X152937500Y-46000000D03*
X151062500Y-46000000D03*
%TD*%
%TO.C,D17*%
X102937500Y-66000000D03*
X101062500Y-66000000D03*
%TD*%
D12*
%TO.C,TP9*%
X96250000Y-53500000D03*
%TD*%
D11*
%TO.C,D20*%
X132937500Y-66000000D03*
X131062500Y-66000000D03*
%TD*%
D12*
%TO.C,TP2*%
X172750000Y-63500000D03*
%TD*%
D11*
%TO.C,D4*%
X132937500Y-46000000D03*
X131062500Y-46000000D03*
%TD*%
D13*
%TO.C,R25*%
X103825000Y-43500000D03*
X102175000Y-43500000D03*
%TD*%
D10*
%TO.C,R24*%
X167175000Y-66000000D03*
X168825000Y-66000000D03*
%TD*%
%TO.C,R22*%
X147175000Y-66000000D03*
X148825000Y-66000000D03*
%TD*%
D11*
%TO.C,D14*%
X152937500Y-56000000D03*
X151062500Y-56000000D03*
%TD*%
%TO.C,D19*%
X122937500Y-66000000D03*
X121062500Y-66000000D03*
%TD*%
D10*
%TO.C,R1*%
X97175000Y-46000000D03*
X98825000Y-46000000D03*
%TD*%
%TO.C,R6*%
X147175000Y-46000000D03*
X148825000Y-46000000D03*
%TD*%
D12*
%TO.C,TP5*%
X96250000Y-71250000D03*
%TD*%
D11*
%TO.C,D23*%
X162937500Y-66000000D03*
X161062500Y-66000000D03*
%TD*%
D12*
%TO.C,TP10*%
X172750000Y-43500000D03*
%TD*%
D11*
%TO.C,D16*%
X172937500Y-56000000D03*
X171062500Y-56000000D03*
%TD*%
D12*
%TO.C,TP1*%
X96250000Y-43500000D03*
%TD*%
D11*
%TO.C,D11*%
X122937500Y-56000000D03*
X121062500Y-56000000D03*
%TD*%
D10*
%TO.C,R5*%
X137175000Y-46000000D03*
X138825000Y-46000000D03*
%TD*%
D11*
%TO.C,D10*%
X112937500Y-56000000D03*
X111062500Y-56000000D03*
%TD*%
%TO.C,D5*%
X142937500Y-46000000D03*
X141062500Y-46000000D03*
%TD*%
D10*
%TO.C,R14*%
X147175000Y-56000000D03*
X148825000Y-56000000D03*
%TD*%
D11*
%TO.C,D2*%
X112937500Y-46000000D03*
X111062500Y-46000000D03*
%TD*%
%TO.C,D9*%
X102937500Y-56000000D03*
X101062500Y-56000000D03*
%TD*%
%TO.C,D3*%
X122937500Y-46000000D03*
X121062500Y-46000000D03*
%TD*%
D10*
%TO.C,R7*%
X157175000Y-46000000D03*
X158825000Y-46000000D03*
%TD*%
D13*
%TO.C,R27*%
X104150000Y-53500000D03*
X102500000Y-53500000D03*
%TD*%
D10*
%TO.C,R21*%
X137175000Y-66000000D03*
X138825000Y-66000000D03*
%TD*%
%TO.C,R17*%
X97175000Y-66000000D03*
X98825000Y-66000000D03*
%TD*%
D11*
%TO.C,D22*%
X152937500Y-66000000D03*
X151062500Y-66000000D03*
%TD*%
%TO.C,D13*%
X142937500Y-56000000D03*
X141062500Y-56000000D03*
%TD*%
D10*
%TO.C,R20*%
X127175000Y-66000000D03*
X128825000Y-66000000D03*
%TD*%
D11*
%TO.C,D18*%
X112937500Y-66000000D03*
X111062500Y-66000000D03*
%TD*%
D10*
%TO.C,R2*%
X107175000Y-46000000D03*
X108825000Y-46000000D03*
%TD*%
%TO.C,R4*%
X127175000Y-46000000D03*
X128825000Y-46000000D03*
%TD*%
%TO.C,R9*%
X97175000Y-56000000D03*
X98825000Y-56000000D03*
%TD*%
D11*
%TO.C,D7*%
X162937500Y-46000000D03*
X161062500Y-46000000D03*
%TD*%
D13*
%TO.C,R26*%
X104150000Y-63500000D03*
X102500000Y-63500000D03*
%TD*%
D10*
%TO.C,R10*%
X107175000Y-56000000D03*
X108825000Y-56000000D03*
%TD*%
%TO.C,R13*%
X137175000Y-56000000D03*
X138825000Y-56000000D03*
%TD*%
D12*
%TO.C,TP7*%
X172750000Y-71250000D03*
%TD*%
D10*
%TO.C,R11*%
X117175000Y-56000000D03*
X118825000Y-56000000D03*
%TD*%
%TO.C,R18*%
X107175000Y-66000000D03*
X108825000Y-66000000D03*
%TD*%
D12*
%TO.C,TP4*%
X172750000Y-40750000D03*
%TD*%
D10*
%TO.C,R16*%
X167175000Y-56000000D03*
X168825000Y-56000000D03*
%TD*%
D11*
%TO.C,D21*%
X142937500Y-66000000D03*
X141062500Y-66000000D03*
%TD*%
D10*
%TO.C,R15*%
X157175000Y-56000000D03*
X158825000Y-56000000D03*
%TD*%
D11*
%TO.C,D24*%
X172937500Y-66000000D03*
X171062500Y-66000000D03*
%TD*%
%TO.C,D12*%
X132937500Y-56000000D03*
X131062500Y-56000000D03*
%TD*%
%TO.C,D8*%
X172937500Y-46000000D03*
X171062500Y-46000000D03*
%TD*%
D12*
%TO.C,TP6*%
X96250000Y-40750000D03*
%TD*%
%TO.C,TP3*%
X172750000Y-53500000D03*
%TD*%
D11*
%TO.C,D1*%
X102937500Y-46000000D03*
X101062500Y-46000000D03*
%TD*%
M02*
