%TF.GenerationSoftware,KiCad,Pcbnew,9.0.3*%
%TF.CreationDate,2025-08-28T14:22:23-04:00*%
%TF.ProjectId,Shift-LED-Board,53686966-742d-44c4-9544-2d426f617264,rev?*%
%TF.SameCoordinates,Original*%
%TF.FileFunction,Legend,Bot*%
%TF.FilePolarity,Positive*%
%FSLAX46Y46*%
G04 Gerber Fmt 4.6, Leading zero omitted, Abs format (unit mm)*
G04 Created by KiCad (PCBNEW 9.0.3) date 2025-08-28 14:22:23*
%MOMM*%
%LPD*%
G01*
G04 APERTURE LIST*
%ADD10C,0.150000*%
%ADD11C,0.120000*%
G04 APERTURE END LIST*
D10*
X105854819Y-55238095D02*
X106664342Y-55238095D01*
X106664342Y-55238095D02*
X106759580Y-55285714D01*
X106759580Y-55285714D02*
X106807200Y-55333333D01*
X106807200Y-55333333D02*
X106854819Y-55428571D01*
X106854819Y-55428571D02*
X106854819Y-55619047D01*
X106854819Y-55619047D02*
X106807200Y-55714285D01*
X106807200Y-55714285D02*
X106759580Y-55761904D01*
X106759580Y-55761904D02*
X106664342Y-55809523D01*
X106664342Y-55809523D02*
X105854819Y-55809523D01*
X105950057Y-56238095D02*
X105902438Y-56285714D01*
X105902438Y-56285714D02*
X105854819Y-56380952D01*
X105854819Y-56380952D02*
X105854819Y-56619047D01*
X105854819Y-56619047D02*
X105902438Y-56714285D01*
X105902438Y-56714285D02*
X105950057Y-56761904D01*
X105950057Y-56761904D02*
X106045295Y-56809523D01*
X106045295Y-56809523D02*
X106140533Y-56809523D01*
X106140533Y-56809523D02*
X106283390Y-56761904D01*
X106283390Y-56761904D02*
X106854819Y-56190476D01*
X106854819Y-56190476D02*
X106854819Y-56809523D01*
X105854819Y-45238095D02*
X106664342Y-45238095D01*
X106664342Y-45238095D02*
X106759580Y-45285714D01*
X106759580Y-45285714D02*
X106807200Y-45333333D01*
X106807200Y-45333333D02*
X106854819Y-45428571D01*
X106854819Y-45428571D02*
X106854819Y-45619047D01*
X106854819Y-45619047D02*
X106807200Y-45714285D01*
X106807200Y-45714285D02*
X106759580Y-45761904D01*
X106759580Y-45761904D02*
X106664342Y-45809523D01*
X106664342Y-45809523D02*
X105854819Y-45809523D01*
X106854819Y-46809523D02*
X106854819Y-46238095D01*
X106854819Y-46523809D02*
X105854819Y-46523809D01*
X105854819Y-46523809D02*
X105997676Y-46428571D01*
X105997676Y-46428571D02*
X106092914Y-46333333D01*
X106092914Y-46333333D02*
X106140533Y-46238095D01*
D11*
%TO.C,U2*%
X95440000Y-56000000D02*
X95440000Y-54050000D01*
X95440000Y-56000000D02*
X95440000Y-57950000D01*
X105560000Y-56000000D02*
X105560000Y-54050000D01*
X105560000Y-56000000D02*
X105560000Y-57950000D01*
X105835000Y-58940000D02*
X105505000Y-58700000D01*
X105835000Y-58460000D01*
X105835000Y-58940000D01*
G36*
X105835000Y-58940000D02*
G01*
X105505000Y-58700000D01*
X105835000Y-58460000D01*
X105835000Y-58940000D01*
G37*
%TO.C,U1*%
X95440000Y-46000000D02*
X95440000Y-44050000D01*
X95440000Y-46000000D02*
X95440000Y-47950000D01*
X105560000Y-46000000D02*
X105560000Y-44050000D01*
X105560000Y-46000000D02*
X105560000Y-47950000D01*
X105835000Y-48940000D02*
X105505000Y-48700000D01*
X105835000Y-48460000D01*
X105835000Y-48940000D01*
G36*
X105835000Y-48940000D02*
G01*
X105505000Y-48700000D01*
X105835000Y-48460000D01*
X105835000Y-48940000D01*
G37*
%TO.C,U3*%
X95440000Y-66000000D02*
X95440000Y-64050000D01*
X95440000Y-66000000D02*
X95440000Y-67950000D01*
X105560000Y-66000000D02*
X105560000Y-64050000D01*
X105560000Y-66000000D02*
X105560000Y-67950000D01*
X105835000Y-68940000D02*
X105505000Y-68700000D01*
X105835000Y-68460000D01*
X105835000Y-68940000D01*
G36*
X105835000Y-68940000D02*
G01*
X105505000Y-68700000D01*
X105835000Y-68460000D01*
X105835000Y-68940000D01*
G37*
%TD*%
M02*
