%TF.GenerationSoftware,KiCad,Pcbnew,9.0.3*%
%TF.CreationDate,2025-08-28T14:22:22-04:00*%
%TF.ProjectId,Shift-LED-Board,53686966-742d-44c4-9544-2d426f617264,rev?*%
%TF.SameCoordinates,Original*%
%TF.FileFunction,Copper,L3,Inr*%
%TF.FilePolarity,Positive*%
%FSLAX46Y46*%
G04 Gerber Fmt 4.6, Leading zero omitted, Abs format (unit mm)*
G04 Created by KiCad (PCBNEW 9.0.3) date 2025-08-28 14:22:22*
%MOMM*%
%LPD*%
G01*
G04 APERTURE LIST*
%TA.AperFunction,ViaPad*%
%ADD10C,0.600000*%
%TD*%
G04 APERTURE END LIST*
D10*
%TO.N,GND*%
X171000000Y-71250000D03*
X104250000Y-45250000D03*
X113000000Y-47250000D03*
X123000000Y-57250000D03*
X123000000Y-47250000D03*
X163000000Y-57250000D03*
X96055000Y-50000000D03*
X113000000Y-67250000D03*
X97750000Y-71500000D03*
X153000000Y-47250000D03*
X143000000Y-47250000D03*
X163000000Y-67250000D03*
X173000000Y-57250000D03*
X133000000Y-57250000D03*
X143000000Y-67250000D03*
X163000000Y-47250000D03*
X173000000Y-47250000D03*
X104250000Y-55250000D03*
X173000000Y-67250000D03*
X133000000Y-67250000D03*
X123000000Y-67250000D03*
X96055000Y-60000000D03*
X113000000Y-57250000D03*
X143000000Y-57250000D03*
X133000000Y-47250000D03*
X104250000Y-65250000D03*
X153000000Y-67250000D03*
%TO.N,/5V*%
X171000000Y-40750000D03*
X106000000Y-53525000D03*
X106000000Y-63525000D03*
X98000000Y-40000000D03*
X106000000Y-43525000D03*
%TO.N,Net-(U1-QA)*%
X96000000Y-46000000D03*
%TO.N,Net-(U1-QB)*%
X106000000Y-46000000D03*
%TO.N,Net-(U1-QC)*%
X116000000Y-46000000D03*
%TO.N,Net-(U1-QD)*%
X126000000Y-46000000D03*
%TO.N,Net-(U1-QE)*%
X101135000Y-50000000D03*
%TO.N,Net-(U1-QF)*%
X99865000Y-50000000D03*
%TO.N,Net-(U1-QG)*%
X98595000Y-50000000D03*
%TO.N,Net-(U1-QH)*%
X97325000Y-50000000D03*
%TO.N,Net-(U2-QA)*%
X96000000Y-56000000D03*
%TO.N,Net-(U2-QB)*%
X106000000Y-56000000D03*
%TO.N,Net-(U2-QC)*%
X116000000Y-56000000D03*
%TO.N,Net-(U2-QD)*%
X126000000Y-56000000D03*
%TO.N,Net-(U2-QE)*%
X101135000Y-60000000D03*
%TO.N,Net-(U2-QF)*%
X99865000Y-60000000D03*
%TO.N,Net-(U2-QG)*%
X98595000Y-60000000D03*
%TO.N,Net-(U2-QH)*%
X97325000Y-60000000D03*
%TO.N,Net-(U3-QA)*%
X96000000Y-66000000D03*
%TO.N,Net-(U3-QB)*%
X106000000Y-66000000D03*
%TO.N,Net-(U3-QC)*%
X116000000Y-66000000D03*
%TO.N,Net-(U3-QD)*%
X126000000Y-66000000D03*
%TO.N,Net-(U3-QE)*%
X101135000Y-70000000D03*
%TO.N,Net-(U3-QF)*%
X99865000Y-70000000D03*
%TO.N,Net-(U3-QG)*%
X98595000Y-70000000D03*
%TO.N,Net-(U3-QH)*%
X97325000Y-70000000D03*
%TO.N,/SER_IN*%
X102405000Y-42000000D03*
%TO.N,/SR_CLK*%
X98595000Y-52000000D03*
X98595000Y-42000000D03*
X98595000Y-62000000D03*
X171000000Y-63500000D03*
%TO.N,/OE*%
X101135000Y-42000000D03*
X101135000Y-62000000D03*
X101135000Y-52000000D03*
%TO.N,/RC_CLK*%
X171000000Y-53500000D03*
X99865000Y-42000000D03*
X99865000Y-62000000D03*
X99865000Y-52000000D03*
%TO.N,/SER_OUT*%
X171000000Y-43500000D03*
X96055000Y-62000000D03*
%TD*%
%TA.AperFunction,Conductor*%
%TO.N,/5V*%
G36*
X173942539Y-39520185D02*
G01*
X173988294Y-39572989D01*
X173999500Y-39624500D01*
X173999500Y-46947809D01*
X173979815Y-47014848D01*
X173927011Y-47060603D01*
X173857853Y-47070547D01*
X173794297Y-47041522D01*
X173760939Y-46995261D01*
X173709397Y-46870827D01*
X173709390Y-46870814D01*
X173621789Y-46739711D01*
X173621786Y-46739707D01*
X173510292Y-46628213D01*
X173510288Y-46628210D01*
X173379185Y-46540609D01*
X173379172Y-46540602D01*
X173233501Y-46480264D01*
X173233489Y-46480261D01*
X173078845Y-46449500D01*
X173078842Y-46449500D01*
X172921158Y-46449500D01*
X172921155Y-46449500D01*
X172766510Y-46480261D01*
X172766498Y-46480264D01*
X172620827Y-46540602D01*
X172620814Y-46540609D01*
X172489711Y-46628210D01*
X172489707Y-46628213D01*
X172378213Y-46739707D01*
X172378210Y-46739711D01*
X172290609Y-46870814D01*
X172290602Y-46870827D01*
X172230264Y-47016498D01*
X172230261Y-47016510D01*
X172199500Y-47171153D01*
X172199500Y-47328846D01*
X172230261Y-47483489D01*
X172230264Y-47483501D01*
X172290602Y-47629172D01*
X172290609Y-47629185D01*
X172378210Y-47760288D01*
X172378213Y-47760292D01*
X172489707Y-47871786D01*
X172489711Y-47871789D01*
X172620814Y-47959390D01*
X172620827Y-47959397D01*
X172766498Y-48019735D01*
X172766503Y-48019737D01*
X172921153Y-48050499D01*
X172921156Y-48050500D01*
X172921158Y-48050500D01*
X173078844Y-48050500D01*
X173078845Y-48050499D01*
X173233497Y-48019737D01*
X173379179Y-47959394D01*
X173510289Y-47871789D01*
X173621789Y-47760289D01*
X173709394Y-47629179D01*
X173760939Y-47504738D01*
X173804779Y-47450334D01*
X173871074Y-47428269D01*
X173938773Y-47445548D01*
X173986384Y-47496685D01*
X173999500Y-47552190D01*
X173999500Y-56947809D01*
X173979815Y-57014848D01*
X173927011Y-57060603D01*
X173857853Y-57070547D01*
X173794297Y-57041522D01*
X173760939Y-56995261D01*
X173709397Y-56870827D01*
X173709390Y-56870814D01*
X173621789Y-56739711D01*
X173621786Y-56739707D01*
X173510292Y-56628213D01*
X173510288Y-56628210D01*
X173379185Y-56540609D01*
X173379172Y-56540602D01*
X173233501Y-56480264D01*
X173233489Y-56480261D01*
X173078845Y-56449500D01*
X173078842Y-56449500D01*
X172921158Y-56449500D01*
X172921155Y-56449500D01*
X172766510Y-56480261D01*
X172766498Y-56480264D01*
X172620827Y-56540602D01*
X172620814Y-56540609D01*
X172489711Y-56628210D01*
X172489707Y-56628213D01*
X172378213Y-56739707D01*
X172378210Y-56739711D01*
X172290609Y-56870814D01*
X172290602Y-56870827D01*
X172230264Y-57016498D01*
X172230261Y-57016510D01*
X172199500Y-57171153D01*
X172199500Y-57328846D01*
X172230261Y-57483489D01*
X172230264Y-57483501D01*
X172290602Y-57629172D01*
X172290609Y-57629185D01*
X172378210Y-57760288D01*
X172378213Y-57760292D01*
X172489707Y-57871786D01*
X172489711Y-57871789D01*
X172620814Y-57959390D01*
X172620827Y-57959397D01*
X172766498Y-58019735D01*
X172766503Y-58019737D01*
X172921153Y-58050499D01*
X172921156Y-58050500D01*
X172921158Y-58050500D01*
X173078844Y-58050500D01*
X173078845Y-58050499D01*
X173233497Y-58019737D01*
X173379179Y-57959394D01*
X173510289Y-57871789D01*
X173621789Y-57760289D01*
X173709394Y-57629179D01*
X173760939Y-57504738D01*
X173804779Y-57450334D01*
X173871074Y-57428269D01*
X173938773Y-57445548D01*
X173986384Y-57496685D01*
X173999500Y-57552190D01*
X173999500Y-66947809D01*
X173979815Y-67014848D01*
X173927011Y-67060603D01*
X173857853Y-67070547D01*
X173794297Y-67041522D01*
X173760939Y-66995261D01*
X173709397Y-66870827D01*
X173709390Y-66870814D01*
X173621789Y-66739711D01*
X173621786Y-66739707D01*
X173510292Y-66628213D01*
X173510288Y-66628210D01*
X173379185Y-66540609D01*
X173379172Y-66540602D01*
X173233501Y-66480264D01*
X173233489Y-66480261D01*
X173078845Y-66449500D01*
X173078842Y-66449500D01*
X172921158Y-66449500D01*
X172921155Y-66449500D01*
X172766510Y-66480261D01*
X172766498Y-66480264D01*
X172620827Y-66540602D01*
X172620814Y-66540609D01*
X172489711Y-66628210D01*
X172489707Y-66628213D01*
X172378213Y-66739707D01*
X172378210Y-66739711D01*
X172290609Y-66870814D01*
X172290602Y-66870827D01*
X172230264Y-67016498D01*
X172230261Y-67016510D01*
X172199500Y-67171153D01*
X172199500Y-67328846D01*
X172230261Y-67483489D01*
X172230264Y-67483501D01*
X172290602Y-67629172D01*
X172290609Y-67629185D01*
X172378210Y-67760288D01*
X172378213Y-67760292D01*
X172489707Y-67871786D01*
X172489711Y-67871789D01*
X172620814Y-67959390D01*
X172620827Y-67959397D01*
X172766498Y-68019735D01*
X172766503Y-68019737D01*
X172921153Y-68050499D01*
X172921156Y-68050500D01*
X172921158Y-68050500D01*
X173078844Y-68050500D01*
X173078845Y-68050499D01*
X173233497Y-68019737D01*
X173379179Y-67959394D01*
X173510289Y-67871789D01*
X173621789Y-67760289D01*
X173709394Y-67629179D01*
X173760939Y-67504738D01*
X173804779Y-67450334D01*
X173871074Y-67428269D01*
X173938773Y-67445548D01*
X173986384Y-67496685D01*
X173999500Y-67552190D01*
X173999500Y-72375500D01*
X173979815Y-72442539D01*
X173927011Y-72488294D01*
X173875500Y-72499500D01*
X98052190Y-72499500D01*
X97985151Y-72479815D01*
X97939396Y-72427011D01*
X97929452Y-72357853D01*
X97958477Y-72294297D01*
X98004738Y-72260939D01*
X98129172Y-72209397D01*
X98129172Y-72209396D01*
X98129179Y-72209394D01*
X98260289Y-72121789D01*
X98371789Y-72010289D01*
X98459394Y-71879179D01*
X98519737Y-71733497D01*
X98550500Y-71578842D01*
X98550500Y-71421158D01*
X98550500Y-71421155D01*
X98550499Y-71421153D01*
X98519738Y-71266510D01*
X98519737Y-71266503D01*
X98480242Y-71171153D01*
X170199500Y-71171153D01*
X170199500Y-71328846D01*
X170230261Y-71483489D01*
X170230264Y-71483501D01*
X170290602Y-71629172D01*
X170290609Y-71629185D01*
X170378210Y-71760288D01*
X170378213Y-71760292D01*
X170489707Y-71871786D01*
X170489711Y-71871789D01*
X170620814Y-71959390D01*
X170620827Y-71959397D01*
X170766498Y-72019735D01*
X170766503Y-72019737D01*
X170921153Y-72050499D01*
X170921156Y-72050500D01*
X170921158Y-72050500D01*
X171078844Y-72050500D01*
X171078845Y-72050499D01*
X171233497Y-72019737D01*
X171379179Y-71959394D01*
X171510289Y-71871789D01*
X171621789Y-71760289D01*
X171709394Y-71629179D01*
X171769737Y-71483497D01*
X171800500Y-71328842D01*
X171800500Y-71171158D01*
X171800500Y-71171155D01*
X171800499Y-71171153D01*
X171769738Y-71016510D01*
X171769737Y-71016503D01*
X171769735Y-71016498D01*
X171709397Y-70870827D01*
X171709390Y-70870814D01*
X171621789Y-70739711D01*
X171621786Y-70739707D01*
X171510292Y-70628213D01*
X171510288Y-70628210D01*
X171379185Y-70540609D01*
X171379172Y-70540602D01*
X171233501Y-70480264D01*
X171233489Y-70480261D01*
X171078845Y-70449500D01*
X171078842Y-70449500D01*
X170921158Y-70449500D01*
X170921155Y-70449500D01*
X170766510Y-70480261D01*
X170766498Y-70480264D01*
X170620827Y-70540602D01*
X170620814Y-70540609D01*
X170489711Y-70628210D01*
X170489707Y-70628213D01*
X170378213Y-70739707D01*
X170378210Y-70739711D01*
X170290609Y-70870814D01*
X170290602Y-70870827D01*
X170230264Y-71016498D01*
X170230261Y-71016510D01*
X170199500Y-71171153D01*
X98480242Y-71171153D01*
X98479933Y-71170408D01*
X98459397Y-71120827D01*
X98459395Y-71120823D01*
X98459394Y-71120821D01*
X98371789Y-70989711D01*
X98371788Y-70989710D01*
X98370171Y-70987290D01*
X98349293Y-70920613D01*
X98367777Y-70853233D01*
X98419756Y-70806542D01*
X98488726Y-70795366D01*
X98497465Y-70796782D01*
X98516156Y-70800500D01*
X98516158Y-70800500D01*
X98673844Y-70800500D01*
X98673845Y-70800499D01*
X98828497Y-70769737D01*
X98974179Y-70709394D01*
X99105289Y-70621789D01*
X99105292Y-70621786D01*
X99142319Y-70584760D01*
X99203642Y-70551275D01*
X99273334Y-70556259D01*
X99317681Y-70584760D01*
X99354707Y-70621786D01*
X99354711Y-70621789D01*
X99485814Y-70709390D01*
X99485827Y-70709397D01*
X99559013Y-70739711D01*
X99631503Y-70769737D01*
X99786153Y-70800499D01*
X99786156Y-70800500D01*
X99786158Y-70800500D01*
X99943844Y-70800500D01*
X99943845Y-70800499D01*
X100098497Y-70769737D01*
X100244179Y-70709394D01*
X100375289Y-70621789D01*
X100375292Y-70621786D01*
X100412319Y-70584760D01*
X100473642Y-70551275D01*
X100543334Y-70556259D01*
X100587681Y-70584760D01*
X100624707Y-70621786D01*
X100624711Y-70621789D01*
X100755814Y-70709390D01*
X100755827Y-70709397D01*
X100829013Y-70739711D01*
X100901503Y-70769737D01*
X101056153Y-70800499D01*
X101056156Y-70800500D01*
X101056158Y-70800500D01*
X101213844Y-70800500D01*
X101213845Y-70800499D01*
X101368497Y-70769737D01*
X101514179Y-70709394D01*
X101645289Y-70621789D01*
X101756789Y-70510289D01*
X101844394Y-70379179D01*
X101904737Y-70233497D01*
X101935500Y-70078842D01*
X101935500Y-69921158D01*
X101935500Y-69921155D01*
X101935499Y-69921153D01*
X101904738Y-69766510D01*
X101904737Y-69766503D01*
X101904735Y-69766498D01*
X101844397Y-69620827D01*
X101844390Y-69620814D01*
X101756789Y-69489711D01*
X101756786Y-69489707D01*
X101645292Y-69378213D01*
X101645288Y-69378210D01*
X101514185Y-69290609D01*
X101514172Y-69290602D01*
X101368501Y-69230264D01*
X101368489Y-69230261D01*
X101213845Y-69199500D01*
X101213842Y-69199500D01*
X101056158Y-69199500D01*
X101056155Y-69199500D01*
X100901510Y-69230261D01*
X100901498Y-69230264D01*
X100755827Y-69290602D01*
X100755814Y-69290609D01*
X100624711Y-69378210D01*
X100624707Y-69378213D01*
X100587681Y-69415240D01*
X100526358Y-69448725D01*
X100456666Y-69443741D01*
X100412319Y-69415240D01*
X100375292Y-69378213D01*
X100375288Y-69378210D01*
X100244185Y-69290609D01*
X100244172Y-69290602D01*
X100098501Y-69230264D01*
X100098489Y-69230261D01*
X99943845Y-69199500D01*
X99943842Y-69199500D01*
X99786158Y-69199500D01*
X99786155Y-69199500D01*
X99631510Y-69230261D01*
X99631498Y-69230264D01*
X99485827Y-69290602D01*
X99485814Y-69290609D01*
X99354711Y-69378210D01*
X99354707Y-69378213D01*
X99317681Y-69415240D01*
X99256358Y-69448725D01*
X99186666Y-69443741D01*
X99142319Y-69415240D01*
X99105292Y-69378213D01*
X99105288Y-69378210D01*
X98974185Y-69290609D01*
X98974172Y-69290602D01*
X98828501Y-69230264D01*
X98828489Y-69230261D01*
X98673845Y-69199500D01*
X98673842Y-69199500D01*
X98516158Y-69199500D01*
X98516155Y-69199500D01*
X98361510Y-69230261D01*
X98361498Y-69230264D01*
X98215827Y-69290602D01*
X98215814Y-69290609D01*
X98084711Y-69378210D01*
X98084707Y-69378213D01*
X98047681Y-69415240D01*
X97986358Y-69448725D01*
X97916666Y-69443741D01*
X97872319Y-69415240D01*
X97835292Y-69378213D01*
X97835288Y-69378210D01*
X97704185Y-69290609D01*
X97704172Y-69290602D01*
X97558501Y-69230264D01*
X97558489Y-69230261D01*
X97403845Y-69199500D01*
X97403842Y-69199500D01*
X97246158Y-69199500D01*
X97246155Y-69199500D01*
X97091510Y-69230261D01*
X97091498Y-69230264D01*
X96945827Y-69290602D01*
X96945814Y-69290609D01*
X96814711Y-69378210D01*
X96814707Y-69378213D01*
X96703213Y-69489707D01*
X96703210Y-69489711D01*
X96615609Y-69620814D01*
X96615602Y-69620827D01*
X96555264Y-69766498D01*
X96555261Y-69766510D01*
X96524500Y-69921153D01*
X96524500Y-70078846D01*
X96555261Y-70233489D01*
X96555264Y-70233501D01*
X96615602Y-70379172D01*
X96615609Y-70379185D01*
X96703210Y-70510288D01*
X96703213Y-70510292D01*
X96814707Y-70621786D01*
X96814711Y-70621789D01*
X96945814Y-70709390D01*
X96945827Y-70709397D01*
X97097130Y-70772068D01*
X97096569Y-70773420D01*
X97148910Y-70807724D01*
X97177365Y-70871537D01*
X97166803Y-70940603D01*
X97142158Y-70975763D01*
X97128210Y-70989711D01*
X97040609Y-71120814D01*
X97040602Y-71120827D01*
X96980264Y-71266498D01*
X96980261Y-71266510D01*
X96949500Y-71421153D01*
X96949500Y-71578846D01*
X96980261Y-71733489D01*
X96980264Y-71733501D01*
X97040602Y-71879172D01*
X97040609Y-71879185D01*
X97128210Y-72010288D01*
X97128213Y-72010292D01*
X97239707Y-72121786D01*
X97239711Y-72121789D01*
X97370814Y-72209390D01*
X97370827Y-72209397D01*
X97495262Y-72260939D01*
X97549666Y-72304779D01*
X97571731Y-72371074D01*
X97554452Y-72438773D01*
X97503315Y-72486384D01*
X97447810Y-72499500D01*
X95124500Y-72499500D01*
X95057461Y-72479815D01*
X95011706Y-72427011D01*
X95000500Y-72375500D01*
X95000500Y-67171153D01*
X112199500Y-67171153D01*
X112199500Y-67328846D01*
X112230261Y-67483489D01*
X112230264Y-67483501D01*
X112290602Y-67629172D01*
X112290609Y-67629185D01*
X112378210Y-67760288D01*
X112378213Y-67760292D01*
X112489707Y-67871786D01*
X112489711Y-67871789D01*
X112620814Y-67959390D01*
X112620827Y-67959397D01*
X112766498Y-68019735D01*
X112766503Y-68019737D01*
X112921153Y-68050499D01*
X112921156Y-68050500D01*
X112921158Y-68050500D01*
X113078844Y-68050500D01*
X113078845Y-68050499D01*
X113233497Y-68019737D01*
X113379179Y-67959394D01*
X113510289Y-67871789D01*
X113621789Y-67760289D01*
X113709394Y-67629179D01*
X113769737Y-67483497D01*
X113800500Y-67328842D01*
X113800500Y-67171158D01*
X113800500Y-67171155D01*
X113800499Y-67171153D01*
X122199500Y-67171153D01*
X122199500Y-67328846D01*
X122230261Y-67483489D01*
X122230264Y-67483501D01*
X122290602Y-67629172D01*
X122290609Y-67629185D01*
X122378210Y-67760288D01*
X122378213Y-67760292D01*
X122489707Y-67871786D01*
X122489711Y-67871789D01*
X122620814Y-67959390D01*
X122620827Y-67959397D01*
X122766498Y-68019735D01*
X122766503Y-68019737D01*
X122921153Y-68050499D01*
X122921156Y-68050500D01*
X122921158Y-68050500D01*
X123078844Y-68050500D01*
X123078845Y-68050499D01*
X123233497Y-68019737D01*
X123379179Y-67959394D01*
X123510289Y-67871789D01*
X123621789Y-67760289D01*
X123709394Y-67629179D01*
X123769737Y-67483497D01*
X123800500Y-67328842D01*
X123800500Y-67171158D01*
X123800500Y-67171155D01*
X123800499Y-67171153D01*
X132199500Y-67171153D01*
X132199500Y-67328846D01*
X132230261Y-67483489D01*
X132230264Y-67483501D01*
X132290602Y-67629172D01*
X132290609Y-67629185D01*
X132378210Y-67760288D01*
X132378213Y-67760292D01*
X132489707Y-67871786D01*
X132489711Y-67871789D01*
X132620814Y-67959390D01*
X132620827Y-67959397D01*
X132766498Y-68019735D01*
X132766503Y-68019737D01*
X132921153Y-68050499D01*
X132921156Y-68050500D01*
X132921158Y-68050500D01*
X133078844Y-68050500D01*
X133078845Y-68050499D01*
X133233497Y-68019737D01*
X133379179Y-67959394D01*
X133510289Y-67871789D01*
X133621789Y-67760289D01*
X133709394Y-67629179D01*
X133769737Y-67483497D01*
X133800500Y-67328842D01*
X133800500Y-67171158D01*
X133800500Y-67171155D01*
X133800499Y-67171153D01*
X142199500Y-67171153D01*
X142199500Y-67328846D01*
X142230261Y-67483489D01*
X142230264Y-67483501D01*
X142290602Y-67629172D01*
X142290609Y-67629185D01*
X142378210Y-67760288D01*
X142378213Y-67760292D01*
X142489707Y-67871786D01*
X142489711Y-67871789D01*
X142620814Y-67959390D01*
X142620827Y-67959397D01*
X142766498Y-68019735D01*
X142766503Y-68019737D01*
X142921153Y-68050499D01*
X142921156Y-68050500D01*
X142921158Y-68050500D01*
X143078844Y-68050500D01*
X143078845Y-68050499D01*
X143233497Y-68019737D01*
X143379179Y-67959394D01*
X143510289Y-67871789D01*
X143621789Y-67760289D01*
X143709394Y-67629179D01*
X143769737Y-67483497D01*
X143800500Y-67328842D01*
X143800500Y-67171158D01*
X143800500Y-67171155D01*
X143800499Y-67171153D01*
X152199500Y-67171153D01*
X152199500Y-67328846D01*
X152230261Y-67483489D01*
X152230264Y-67483501D01*
X152290602Y-67629172D01*
X152290609Y-67629185D01*
X152378210Y-67760288D01*
X152378213Y-67760292D01*
X152489707Y-67871786D01*
X152489711Y-67871789D01*
X152620814Y-67959390D01*
X152620827Y-67959397D01*
X152766498Y-68019735D01*
X152766503Y-68019737D01*
X152921153Y-68050499D01*
X152921156Y-68050500D01*
X152921158Y-68050500D01*
X153078844Y-68050500D01*
X153078845Y-68050499D01*
X153233497Y-68019737D01*
X153379179Y-67959394D01*
X153510289Y-67871789D01*
X153621789Y-67760289D01*
X153709394Y-67629179D01*
X153769737Y-67483497D01*
X153800500Y-67328842D01*
X153800500Y-67171158D01*
X153800500Y-67171155D01*
X153800499Y-67171153D01*
X162199500Y-67171153D01*
X162199500Y-67328846D01*
X162230261Y-67483489D01*
X162230264Y-67483501D01*
X162290602Y-67629172D01*
X162290609Y-67629185D01*
X162378210Y-67760288D01*
X162378213Y-67760292D01*
X162489707Y-67871786D01*
X162489711Y-67871789D01*
X162620814Y-67959390D01*
X162620827Y-67959397D01*
X162766498Y-68019735D01*
X162766503Y-68019737D01*
X162921153Y-68050499D01*
X162921156Y-68050500D01*
X162921158Y-68050500D01*
X163078844Y-68050500D01*
X163078845Y-68050499D01*
X163233497Y-68019737D01*
X163379179Y-67959394D01*
X163510289Y-67871789D01*
X163621789Y-67760289D01*
X163709394Y-67629179D01*
X163769737Y-67483497D01*
X163800500Y-67328842D01*
X163800500Y-67171158D01*
X163800500Y-67171155D01*
X163800499Y-67171153D01*
X163778509Y-67060603D01*
X163769737Y-67016503D01*
X163769735Y-67016498D01*
X163709397Y-66870827D01*
X163709390Y-66870814D01*
X163621789Y-66739711D01*
X163621786Y-66739707D01*
X163510292Y-66628213D01*
X163510288Y-66628210D01*
X163379185Y-66540609D01*
X163379172Y-66540602D01*
X163233501Y-66480264D01*
X163233489Y-66480261D01*
X163078845Y-66449500D01*
X163078842Y-66449500D01*
X162921158Y-66449500D01*
X162921155Y-66449500D01*
X162766510Y-66480261D01*
X162766498Y-66480264D01*
X162620827Y-66540602D01*
X162620814Y-66540609D01*
X162489711Y-66628210D01*
X162489707Y-66628213D01*
X162378213Y-66739707D01*
X162378210Y-66739711D01*
X162290609Y-66870814D01*
X162290602Y-66870827D01*
X162230264Y-67016498D01*
X162230261Y-67016510D01*
X162199500Y-67171153D01*
X153800499Y-67171153D01*
X153778509Y-67060603D01*
X153769737Y-67016503D01*
X153769735Y-67016498D01*
X153709397Y-66870827D01*
X153709390Y-66870814D01*
X153621789Y-66739711D01*
X153621786Y-66739707D01*
X153510292Y-66628213D01*
X153510288Y-66628210D01*
X153379185Y-66540609D01*
X153379172Y-66540602D01*
X153233501Y-66480264D01*
X153233489Y-66480261D01*
X153078845Y-66449500D01*
X153078842Y-66449500D01*
X152921158Y-66449500D01*
X152921155Y-66449500D01*
X152766510Y-66480261D01*
X152766498Y-66480264D01*
X152620827Y-66540602D01*
X152620814Y-66540609D01*
X152489711Y-66628210D01*
X152489707Y-66628213D01*
X152378213Y-66739707D01*
X152378210Y-66739711D01*
X152290609Y-66870814D01*
X152290602Y-66870827D01*
X152230264Y-67016498D01*
X152230261Y-67016510D01*
X152199500Y-67171153D01*
X143800499Y-67171153D01*
X143778509Y-67060603D01*
X143769737Y-67016503D01*
X143769735Y-67016498D01*
X143709397Y-66870827D01*
X143709390Y-66870814D01*
X143621789Y-66739711D01*
X143621786Y-66739707D01*
X143510292Y-66628213D01*
X143510288Y-66628210D01*
X143379185Y-66540609D01*
X143379172Y-66540602D01*
X143233501Y-66480264D01*
X143233489Y-66480261D01*
X143078845Y-66449500D01*
X143078842Y-66449500D01*
X142921158Y-66449500D01*
X142921155Y-66449500D01*
X142766510Y-66480261D01*
X142766498Y-66480264D01*
X142620827Y-66540602D01*
X142620814Y-66540609D01*
X142489711Y-66628210D01*
X142489707Y-66628213D01*
X142378213Y-66739707D01*
X142378210Y-66739711D01*
X142290609Y-66870814D01*
X142290602Y-66870827D01*
X142230264Y-67016498D01*
X142230261Y-67016510D01*
X142199500Y-67171153D01*
X133800499Y-67171153D01*
X133778509Y-67060603D01*
X133769737Y-67016503D01*
X133769735Y-67016498D01*
X133709397Y-66870827D01*
X133709390Y-66870814D01*
X133621789Y-66739711D01*
X133621786Y-66739707D01*
X133510292Y-66628213D01*
X133510288Y-66628210D01*
X133379185Y-66540609D01*
X133379172Y-66540602D01*
X133233501Y-66480264D01*
X133233489Y-66480261D01*
X133078845Y-66449500D01*
X133078842Y-66449500D01*
X132921158Y-66449500D01*
X132921155Y-66449500D01*
X132766510Y-66480261D01*
X132766498Y-66480264D01*
X132620827Y-66540602D01*
X132620814Y-66540609D01*
X132489711Y-66628210D01*
X132489707Y-66628213D01*
X132378213Y-66739707D01*
X132378210Y-66739711D01*
X132290609Y-66870814D01*
X132290602Y-66870827D01*
X132230264Y-67016498D01*
X132230261Y-67016510D01*
X132199500Y-67171153D01*
X123800499Y-67171153D01*
X123778509Y-67060603D01*
X123769737Y-67016503D01*
X123769735Y-67016498D01*
X123709397Y-66870827D01*
X123709390Y-66870814D01*
X123621789Y-66739711D01*
X123621786Y-66739707D01*
X123510292Y-66628213D01*
X123510288Y-66628210D01*
X123379185Y-66540609D01*
X123379172Y-66540602D01*
X123233501Y-66480264D01*
X123233489Y-66480261D01*
X123078845Y-66449500D01*
X123078842Y-66449500D01*
X122921158Y-66449500D01*
X122921155Y-66449500D01*
X122766510Y-66480261D01*
X122766498Y-66480264D01*
X122620827Y-66540602D01*
X122620814Y-66540609D01*
X122489711Y-66628210D01*
X122489707Y-66628213D01*
X122378213Y-66739707D01*
X122378210Y-66739711D01*
X122290609Y-66870814D01*
X122290602Y-66870827D01*
X122230264Y-67016498D01*
X122230261Y-67016510D01*
X122199500Y-67171153D01*
X113800499Y-67171153D01*
X113778509Y-67060603D01*
X113769737Y-67016503D01*
X113769735Y-67016498D01*
X113709397Y-66870827D01*
X113709390Y-66870814D01*
X113621789Y-66739711D01*
X113621786Y-66739707D01*
X113510292Y-66628213D01*
X113510288Y-66628210D01*
X113379185Y-66540609D01*
X113379172Y-66540602D01*
X113233501Y-66480264D01*
X113233489Y-66480261D01*
X113078845Y-66449500D01*
X113078842Y-66449500D01*
X112921158Y-66449500D01*
X112921155Y-66449500D01*
X112766510Y-66480261D01*
X112766498Y-66480264D01*
X112620827Y-66540602D01*
X112620814Y-66540609D01*
X112489711Y-66628210D01*
X112489707Y-66628213D01*
X112378213Y-66739707D01*
X112378210Y-66739711D01*
X112290609Y-66870814D01*
X112290602Y-66870827D01*
X112230264Y-67016498D01*
X112230261Y-67016510D01*
X112199500Y-67171153D01*
X95000500Y-67171153D01*
X95000500Y-66302190D01*
X95020185Y-66235151D01*
X95072989Y-66189396D01*
X95142147Y-66179452D01*
X95205703Y-66208477D01*
X95239061Y-66254738D01*
X95290602Y-66379172D01*
X95290609Y-66379185D01*
X95378210Y-66510288D01*
X95378213Y-66510292D01*
X95489707Y-66621786D01*
X95489711Y-66621789D01*
X95620814Y-66709390D01*
X95620827Y-66709397D01*
X95694013Y-66739711D01*
X95766503Y-66769737D01*
X95921153Y-66800499D01*
X95921156Y-66800500D01*
X95921158Y-66800500D01*
X96078844Y-66800500D01*
X96078845Y-66800499D01*
X96233497Y-66769737D01*
X96379179Y-66709394D01*
X96510289Y-66621789D01*
X96621789Y-66510289D01*
X96709394Y-66379179D01*
X96769737Y-66233497D01*
X96800500Y-66078842D01*
X96800500Y-65921158D01*
X96800500Y-65921155D01*
X96800499Y-65921153D01*
X96769738Y-65766510D01*
X96769737Y-65766503D01*
X96760938Y-65745261D01*
X96709397Y-65620827D01*
X96709390Y-65620814D01*
X96621789Y-65489711D01*
X96621786Y-65489707D01*
X96510292Y-65378213D01*
X96510288Y-65378210D01*
X96379185Y-65290609D01*
X96379173Y-65290602D01*
X96352674Y-65279627D01*
X96233501Y-65230264D01*
X96233489Y-65230261D01*
X96078845Y-65199500D01*
X96078842Y-65199500D01*
X95921158Y-65199500D01*
X95921155Y-65199500D01*
X95766510Y-65230261D01*
X95766498Y-65230264D01*
X95620827Y-65290602D01*
X95620814Y-65290609D01*
X95489711Y-65378210D01*
X95489707Y-65378213D01*
X95378213Y-65489707D01*
X95378210Y-65489711D01*
X95290609Y-65620814D01*
X95290602Y-65620827D01*
X95239061Y-65745261D01*
X95195220Y-65799665D01*
X95128926Y-65821730D01*
X95061227Y-65804451D01*
X95013616Y-65753314D01*
X95000500Y-65697809D01*
X95000500Y-65171153D01*
X103449500Y-65171153D01*
X103449500Y-65328846D01*
X103480261Y-65483489D01*
X103480264Y-65483501D01*
X103540602Y-65629172D01*
X103540609Y-65629185D01*
X103628210Y-65760288D01*
X103628213Y-65760292D01*
X103739707Y-65871786D01*
X103739711Y-65871789D01*
X103870814Y-65959390D01*
X103870827Y-65959397D01*
X104016498Y-66019735D01*
X104016503Y-66019737D01*
X104171153Y-66050499D01*
X104171156Y-66050500D01*
X104171158Y-66050500D01*
X104328844Y-66050500D01*
X104328845Y-66050499D01*
X104483497Y-66019737D01*
X104629179Y-65959394D01*
X104686411Y-65921153D01*
X105199500Y-65921153D01*
X105199500Y-66078846D01*
X105230261Y-66233489D01*
X105230264Y-66233501D01*
X105290602Y-66379172D01*
X105290609Y-66379185D01*
X105378210Y-66510288D01*
X105378213Y-66510292D01*
X105489707Y-66621786D01*
X105489711Y-66621789D01*
X105620814Y-66709390D01*
X105620827Y-66709397D01*
X105694013Y-66739711D01*
X105766503Y-66769737D01*
X105921153Y-66800499D01*
X105921156Y-66800500D01*
X105921158Y-66800500D01*
X106078844Y-66800500D01*
X106078845Y-66800499D01*
X106233497Y-66769737D01*
X106379179Y-66709394D01*
X106510289Y-66621789D01*
X106621789Y-66510289D01*
X106709394Y-66379179D01*
X106769737Y-66233497D01*
X106800500Y-66078842D01*
X106800500Y-65921158D01*
X106800500Y-65921155D01*
X106800499Y-65921153D01*
X115199500Y-65921153D01*
X115199500Y-66078846D01*
X115230261Y-66233489D01*
X115230264Y-66233501D01*
X115290602Y-66379172D01*
X115290609Y-66379185D01*
X115378210Y-66510288D01*
X115378213Y-66510292D01*
X115489707Y-66621786D01*
X115489711Y-66621789D01*
X115620814Y-66709390D01*
X115620827Y-66709397D01*
X115694013Y-66739711D01*
X115766503Y-66769737D01*
X115921153Y-66800499D01*
X115921156Y-66800500D01*
X115921158Y-66800500D01*
X116078844Y-66800500D01*
X116078845Y-66800499D01*
X116233497Y-66769737D01*
X116379179Y-66709394D01*
X116510289Y-66621789D01*
X116621789Y-66510289D01*
X116709394Y-66379179D01*
X116769737Y-66233497D01*
X116800500Y-66078842D01*
X116800500Y-65921158D01*
X116800500Y-65921155D01*
X116800499Y-65921153D01*
X125199500Y-65921153D01*
X125199500Y-66078846D01*
X125230261Y-66233489D01*
X125230264Y-66233501D01*
X125290602Y-66379172D01*
X125290609Y-66379185D01*
X125378210Y-66510288D01*
X125378213Y-66510292D01*
X125489707Y-66621786D01*
X125489711Y-66621789D01*
X125620814Y-66709390D01*
X125620827Y-66709397D01*
X125694013Y-66739711D01*
X125766503Y-66769737D01*
X125921153Y-66800499D01*
X125921156Y-66800500D01*
X125921158Y-66800500D01*
X126078844Y-66800500D01*
X126078845Y-66800499D01*
X126233497Y-66769737D01*
X126379179Y-66709394D01*
X126510289Y-66621789D01*
X126621789Y-66510289D01*
X126709394Y-66379179D01*
X126769737Y-66233497D01*
X126800500Y-66078842D01*
X126800500Y-65921158D01*
X126800500Y-65921155D01*
X126800499Y-65921153D01*
X126769738Y-65766510D01*
X126769737Y-65766503D01*
X126760938Y-65745261D01*
X126709397Y-65620827D01*
X126709390Y-65620814D01*
X126621789Y-65489711D01*
X126621786Y-65489707D01*
X126510292Y-65378213D01*
X126510288Y-65378210D01*
X126379185Y-65290609D01*
X126379172Y-65290602D01*
X126233501Y-65230264D01*
X126233489Y-65230261D01*
X126078845Y-65199500D01*
X126078842Y-65199500D01*
X125921158Y-65199500D01*
X125921155Y-65199500D01*
X125766510Y-65230261D01*
X125766498Y-65230264D01*
X125620827Y-65290602D01*
X125620814Y-65290609D01*
X125489711Y-65378210D01*
X125489707Y-65378213D01*
X125378213Y-65489707D01*
X125378210Y-65489711D01*
X125290609Y-65620814D01*
X125290602Y-65620827D01*
X125230264Y-65766498D01*
X125230261Y-65766510D01*
X125199500Y-65921153D01*
X116800499Y-65921153D01*
X116769738Y-65766510D01*
X116769737Y-65766503D01*
X116760938Y-65745261D01*
X116709397Y-65620827D01*
X116709390Y-65620814D01*
X116621789Y-65489711D01*
X116621786Y-65489707D01*
X116510292Y-65378213D01*
X116510288Y-65378210D01*
X116379185Y-65290609D01*
X116379172Y-65290602D01*
X116233501Y-65230264D01*
X116233489Y-65230261D01*
X116078845Y-65199500D01*
X116078842Y-65199500D01*
X115921158Y-65199500D01*
X115921155Y-65199500D01*
X115766510Y-65230261D01*
X115766498Y-65230264D01*
X115620827Y-65290602D01*
X115620814Y-65290609D01*
X115489711Y-65378210D01*
X115489707Y-65378213D01*
X115378213Y-65489707D01*
X115378210Y-65489711D01*
X115290609Y-65620814D01*
X115290602Y-65620827D01*
X115230264Y-65766498D01*
X115230261Y-65766510D01*
X115199500Y-65921153D01*
X106800499Y-65921153D01*
X106769738Y-65766510D01*
X106769737Y-65766503D01*
X106760938Y-65745261D01*
X106709397Y-65620827D01*
X106709390Y-65620814D01*
X106621789Y-65489711D01*
X106621786Y-65489707D01*
X106510292Y-65378213D01*
X106510288Y-65378210D01*
X106379185Y-65290609D01*
X106379172Y-65290602D01*
X106233501Y-65230264D01*
X106233489Y-65230261D01*
X106078845Y-65199500D01*
X106078842Y-65199500D01*
X105921158Y-65199500D01*
X105921155Y-65199500D01*
X105766510Y-65230261D01*
X105766498Y-65230264D01*
X105620827Y-65290602D01*
X105620814Y-65290609D01*
X105489711Y-65378210D01*
X105489707Y-65378213D01*
X105378213Y-65489707D01*
X105378210Y-65489711D01*
X105290609Y-65620814D01*
X105290602Y-65620827D01*
X105230264Y-65766498D01*
X105230261Y-65766510D01*
X105199500Y-65921153D01*
X104686411Y-65921153D01*
X104760289Y-65871789D01*
X104760292Y-65871786D01*
X104804694Y-65827385D01*
X104871786Y-65760292D01*
X104871789Y-65760289D01*
X104959394Y-65629179D01*
X104962854Y-65620827D01*
X105017163Y-65489711D01*
X105019737Y-65483497D01*
X105050500Y-65328842D01*
X105050500Y-65171158D01*
X105050500Y-65171155D01*
X105050499Y-65171153D01*
X105019738Y-65016510D01*
X105019737Y-65016503D01*
X105019735Y-65016498D01*
X104959397Y-64870827D01*
X104959390Y-64870814D01*
X104871789Y-64739711D01*
X104871786Y-64739707D01*
X104760292Y-64628213D01*
X104760288Y-64628210D01*
X104629185Y-64540609D01*
X104629172Y-64540602D01*
X104483501Y-64480264D01*
X104483489Y-64480261D01*
X104328845Y-64449500D01*
X104328842Y-64449500D01*
X104171158Y-64449500D01*
X104171155Y-64449500D01*
X104016510Y-64480261D01*
X104016498Y-64480264D01*
X103870827Y-64540602D01*
X103870814Y-64540609D01*
X103739711Y-64628210D01*
X103739707Y-64628213D01*
X103628213Y-64739707D01*
X103628210Y-64739711D01*
X103540609Y-64870814D01*
X103540602Y-64870827D01*
X103480264Y-65016498D01*
X103480261Y-65016510D01*
X103449500Y-65171153D01*
X95000500Y-65171153D01*
X95000500Y-63421153D01*
X170199500Y-63421153D01*
X170199500Y-63578846D01*
X170230261Y-63733489D01*
X170230264Y-63733501D01*
X170290602Y-63879172D01*
X170290609Y-63879185D01*
X170378210Y-64010288D01*
X170378213Y-64010292D01*
X170489707Y-64121786D01*
X170489711Y-64121789D01*
X170620814Y-64209390D01*
X170620827Y-64209397D01*
X170766498Y-64269735D01*
X170766503Y-64269737D01*
X170921153Y-64300499D01*
X170921156Y-64300500D01*
X170921158Y-64300500D01*
X171078844Y-64300500D01*
X171078845Y-64300499D01*
X171233497Y-64269737D01*
X171379179Y-64209394D01*
X171510289Y-64121789D01*
X171621789Y-64010289D01*
X171709394Y-63879179D01*
X171769737Y-63733497D01*
X171800500Y-63578842D01*
X171800500Y-63421158D01*
X171800500Y-63421155D01*
X171800499Y-63421153D01*
X171769738Y-63266510D01*
X171769737Y-63266503D01*
X171769735Y-63266498D01*
X171709397Y-63120827D01*
X171709390Y-63120814D01*
X171621789Y-62989711D01*
X171621786Y-62989707D01*
X171510292Y-62878213D01*
X171510288Y-62878210D01*
X171379185Y-62790609D01*
X171379172Y-62790602D01*
X171233501Y-62730264D01*
X171233489Y-62730261D01*
X171078845Y-62699500D01*
X171078842Y-62699500D01*
X170921158Y-62699500D01*
X170921155Y-62699500D01*
X170766510Y-62730261D01*
X170766498Y-62730264D01*
X170620827Y-62790602D01*
X170620814Y-62790609D01*
X170489711Y-62878210D01*
X170489707Y-62878213D01*
X170378213Y-62989707D01*
X170378210Y-62989711D01*
X170290609Y-63120814D01*
X170290602Y-63120827D01*
X170230264Y-63266498D01*
X170230261Y-63266510D01*
X170199500Y-63421153D01*
X95000500Y-63421153D01*
X95000500Y-61921153D01*
X95254500Y-61921153D01*
X95254500Y-62078846D01*
X95285261Y-62233489D01*
X95285264Y-62233501D01*
X95345602Y-62379172D01*
X95345609Y-62379185D01*
X95433210Y-62510288D01*
X95433213Y-62510292D01*
X95544707Y-62621786D01*
X95544711Y-62621789D01*
X95675814Y-62709390D01*
X95675827Y-62709397D01*
X95821498Y-62769735D01*
X95821503Y-62769737D01*
X95976153Y-62800499D01*
X95976156Y-62800500D01*
X95976158Y-62800500D01*
X96133844Y-62800500D01*
X96133845Y-62800499D01*
X96288497Y-62769737D01*
X96434179Y-62709394D01*
X96565289Y-62621789D01*
X96676789Y-62510289D01*
X96764394Y-62379179D01*
X96824737Y-62233497D01*
X96855500Y-62078842D01*
X96855500Y-61921158D01*
X96855500Y-61921155D01*
X96855499Y-61921153D01*
X97794500Y-61921153D01*
X97794500Y-62078846D01*
X97825261Y-62233489D01*
X97825264Y-62233501D01*
X97885602Y-62379172D01*
X97885609Y-62379185D01*
X97973210Y-62510288D01*
X97973213Y-62510292D01*
X98084707Y-62621786D01*
X98084711Y-62621789D01*
X98215814Y-62709390D01*
X98215827Y-62709397D01*
X98361498Y-62769735D01*
X98361503Y-62769737D01*
X98516153Y-62800499D01*
X98516156Y-62800500D01*
X98516158Y-62800500D01*
X98673844Y-62800500D01*
X98673845Y-62800499D01*
X98828497Y-62769737D01*
X98974179Y-62709394D01*
X99105289Y-62621789D01*
X99105292Y-62621786D01*
X99142319Y-62584760D01*
X99203642Y-62551275D01*
X99273334Y-62556259D01*
X99317681Y-62584760D01*
X99354707Y-62621786D01*
X99354711Y-62621789D01*
X99485814Y-62709390D01*
X99485827Y-62709397D01*
X99631498Y-62769735D01*
X99631503Y-62769737D01*
X99786153Y-62800499D01*
X99786156Y-62800500D01*
X99786158Y-62800500D01*
X99943844Y-62800500D01*
X99943845Y-62800499D01*
X100098497Y-62769737D01*
X100244179Y-62709394D01*
X100375289Y-62621789D01*
X100375292Y-62621786D01*
X100412319Y-62584760D01*
X100473642Y-62551275D01*
X100543334Y-62556259D01*
X100587681Y-62584760D01*
X100624707Y-62621786D01*
X100624711Y-62621789D01*
X100755814Y-62709390D01*
X100755827Y-62709397D01*
X100901498Y-62769735D01*
X100901503Y-62769737D01*
X101056153Y-62800499D01*
X101056156Y-62800500D01*
X101056158Y-62800500D01*
X101213844Y-62800500D01*
X101213845Y-62800499D01*
X101368497Y-62769737D01*
X101514179Y-62709394D01*
X101645289Y-62621789D01*
X101756789Y-62510289D01*
X101844394Y-62379179D01*
X101904737Y-62233497D01*
X101935500Y-62078842D01*
X101935500Y-61921158D01*
X101935500Y-61921155D01*
X101935499Y-61921153D01*
X101904738Y-61766510D01*
X101904737Y-61766503D01*
X101904735Y-61766498D01*
X101844397Y-61620827D01*
X101844390Y-61620814D01*
X101756789Y-61489711D01*
X101756786Y-61489707D01*
X101645292Y-61378213D01*
X101645288Y-61378210D01*
X101514185Y-61290609D01*
X101514172Y-61290602D01*
X101368501Y-61230264D01*
X101368489Y-61230261D01*
X101213845Y-61199500D01*
X101213842Y-61199500D01*
X101056158Y-61199500D01*
X101056155Y-61199500D01*
X100901510Y-61230261D01*
X100901498Y-61230264D01*
X100755827Y-61290602D01*
X100755814Y-61290609D01*
X100624711Y-61378210D01*
X100624707Y-61378213D01*
X100587681Y-61415240D01*
X100526358Y-61448725D01*
X100456666Y-61443741D01*
X100412319Y-61415240D01*
X100375292Y-61378213D01*
X100375288Y-61378210D01*
X100244185Y-61290609D01*
X100244172Y-61290602D01*
X100098501Y-61230264D01*
X100098489Y-61230261D01*
X99943845Y-61199500D01*
X99943842Y-61199500D01*
X99786158Y-61199500D01*
X99786155Y-61199500D01*
X99631510Y-61230261D01*
X99631498Y-61230264D01*
X99485827Y-61290602D01*
X99485814Y-61290609D01*
X99354711Y-61378210D01*
X99354707Y-61378213D01*
X99317681Y-61415240D01*
X99256358Y-61448725D01*
X99186666Y-61443741D01*
X99142319Y-61415240D01*
X99105292Y-61378213D01*
X99105288Y-61378210D01*
X98974185Y-61290609D01*
X98974172Y-61290602D01*
X98828501Y-61230264D01*
X98828489Y-61230261D01*
X98673845Y-61199500D01*
X98673842Y-61199500D01*
X98516158Y-61199500D01*
X98516155Y-61199500D01*
X98361510Y-61230261D01*
X98361498Y-61230264D01*
X98215827Y-61290602D01*
X98215814Y-61290609D01*
X98084711Y-61378210D01*
X98084707Y-61378213D01*
X97973213Y-61489707D01*
X97973210Y-61489711D01*
X97885609Y-61620814D01*
X97885602Y-61620827D01*
X97825264Y-61766498D01*
X97825261Y-61766510D01*
X97794500Y-61921153D01*
X96855499Y-61921153D01*
X96824738Y-61766510D01*
X96824737Y-61766503D01*
X96824735Y-61766498D01*
X96764397Y-61620827D01*
X96764390Y-61620814D01*
X96676789Y-61489711D01*
X96676786Y-61489707D01*
X96565292Y-61378213D01*
X96565288Y-61378210D01*
X96434185Y-61290609D01*
X96434172Y-61290602D01*
X96288501Y-61230264D01*
X96288489Y-61230261D01*
X96133845Y-61199500D01*
X96133842Y-61199500D01*
X95976158Y-61199500D01*
X95976155Y-61199500D01*
X95821510Y-61230261D01*
X95821498Y-61230264D01*
X95675827Y-61290602D01*
X95675814Y-61290609D01*
X95544711Y-61378210D01*
X95544707Y-61378213D01*
X95433213Y-61489707D01*
X95433210Y-61489711D01*
X95345609Y-61620814D01*
X95345602Y-61620827D01*
X95285264Y-61766498D01*
X95285261Y-61766510D01*
X95254500Y-61921153D01*
X95000500Y-61921153D01*
X95000500Y-59921153D01*
X95254500Y-59921153D01*
X95254500Y-60078846D01*
X95285261Y-60233489D01*
X95285264Y-60233501D01*
X95345602Y-60379172D01*
X95345609Y-60379185D01*
X95433210Y-60510288D01*
X95433213Y-60510292D01*
X95544707Y-60621786D01*
X95544711Y-60621789D01*
X95675814Y-60709390D01*
X95675827Y-60709397D01*
X95821498Y-60769735D01*
X95821503Y-60769737D01*
X95976153Y-60800499D01*
X95976156Y-60800500D01*
X95976158Y-60800500D01*
X96133844Y-60800500D01*
X96133845Y-60800499D01*
X96288497Y-60769737D01*
X96434179Y-60709394D01*
X96565289Y-60621789D01*
X96565292Y-60621786D01*
X96602319Y-60584760D01*
X96663642Y-60551275D01*
X96733334Y-60556259D01*
X96777681Y-60584760D01*
X96814707Y-60621786D01*
X96814711Y-60621789D01*
X96945814Y-60709390D01*
X96945827Y-60709397D01*
X97091498Y-60769735D01*
X97091503Y-60769737D01*
X97246153Y-60800499D01*
X97246156Y-60800500D01*
X97246158Y-60800500D01*
X97403844Y-60800500D01*
X97403845Y-60800499D01*
X97558497Y-60769737D01*
X97704179Y-60709394D01*
X97835289Y-60621789D01*
X97835292Y-60621786D01*
X97872319Y-60584760D01*
X97933642Y-60551275D01*
X98003334Y-60556259D01*
X98047681Y-60584760D01*
X98084707Y-60621786D01*
X98084711Y-60621789D01*
X98215814Y-60709390D01*
X98215827Y-60709397D01*
X98361498Y-60769735D01*
X98361503Y-60769737D01*
X98516153Y-60800499D01*
X98516156Y-60800500D01*
X98516158Y-60800500D01*
X98673844Y-60800500D01*
X98673845Y-60800499D01*
X98828497Y-60769737D01*
X98974179Y-60709394D01*
X99105289Y-60621789D01*
X99105292Y-60621786D01*
X99142319Y-60584760D01*
X99203642Y-60551275D01*
X99273334Y-60556259D01*
X99317681Y-60584760D01*
X99354707Y-60621786D01*
X99354711Y-60621789D01*
X99485814Y-60709390D01*
X99485827Y-60709397D01*
X99631498Y-60769735D01*
X99631503Y-60769737D01*
X99786153Y-60800499D01*
X99786156Y-60800500D01*
X99786158Y-60800500D01*
X99943844Y-60800500D01*
X99943845Y-60800499D01*
X100098497Y-60769737D01*
X100244179Y-60709394D01*
X100375289Y-60621789D01*
X100375292Y-60621786D01*
X100412319Y-60584760D01*
X100473642Y-60551275D01*
X100543334Y-60556259D01*
X100587681Y-60584760D01*
X100624707Y-60621786D01*
X100624711Y-60621789D01*
X100755814Y-60709390D01*
X100755827Y-60709397D01*
X100901498Y-60769735D01*
X100901503Y-60769737D01*
X101056153Y-60800499D01*
X101056156Y-60800500D01*
X101056158Y-60800500D01*
X101213844Y-60800500D01*
X101213845Y-60800499D01*
X101368497Y-60769737D01*
X101514179Y-60709394D01*
X101645289Y-60621789D01*
X101756789Y-60510289D01*
X101844394Y-60379179D01*
X101904737Y-60233497D01*
X101935500Y-60078842D01*
X101935500Y-59921158D01*
X101935500Y-59921155D01*
X101935499Y-59921153D01*
X101904738Y-59766510D01*
X101904737Y-59766503D01*
X101904735Y-59766498D01*
X101844397Y-59620827D01*
X101844390Y-59620814D01*
X101756789Y-59489711D01*
X101756786Y-59489707D01*
X101645292Y-59378213D01*
X101645288Y-59378210D01*
X101514185Y-59290609D01*
X101514172Y-59290602D01*
X101368501Y-59230264D01*
X101368489Y-59230261D01*
X101213845Y-59199500D01*
X101213842Y-59199500D01*
X101056158Y-59199500D01*
X101056155Y-59199500D01*
X100901510Y-59230261D01*
X100901498Y-59230264D01*
X100755827Y-59290602D01*
X100755814Y-59290609D01*
X100624711Y-59378210D01*
X100624707Y-59378213D01*
X100587681Y-59415240D01*
X100526358Y-59448725D01*
X100456666Y-59443741D01*
X100412319Y-59415240D01*
X100375292Y-59378213D01*
X100375288Y-59378210D01*
X100244185Y-59290609D01*
X100244172Y-59290602D01*
X100098501Y-59230264D01*
X100098489Y-59230261D01*
X99943845Y-59199500D01*
X99943842Y-59199500D01*
X99786158Y-59199500D01*
X99786155Y-59199500D01*
X99631510Y-59230261D01*
X99631498Y-59230264D01*
X99485827Y-59290602D01*
X99485814Y-59290609D01*
X99354711Y-59378210D01*
X99354707Y-59378213D01*
X99317681Y-59415240D01*
X99256358Y-59448725D01*
X99186666Y-59443741D01*
X99142319Y-59415240D01*
X99105292Y-59378213D01*
X99105288Y-59378210D01*
X98974185Y-59290609D01*
X98974172Y-59290602D01*
X98828501Y-59230264D01*
X98828489Y-59230261D01*
X98673845Y-59199500D01*
X98673842Y-59199500D01*
X98516158Y-59199500D01*
X98516155Y-59199500D01*
X98361510Y-59230261D01*
X98361498Y-59230264D01*
X98215827Y-59290602D01*
X98215814Y-59290609D01*
X98084711Y-59378210D01*
X98084707Y-59378213D01*
X98047681Y-59415240D01*
X97986358Y-59448725D01*
X97916666Y-59443741D01*
X97872319Y-59415240D01*
X97835292Y-59378213D01*
X97835288Y-59378210D01*
X97704185Y-59290609D01*
X97704172Y-59290602D01*
X97558501Y-59230264D01*
X97558489Y-59230261D01*
X97403845Y-59199500D01*
X97403842Y-59199500D01*
X97246158Y-59199500D01*
X97246155Y-59199500D01*
X97091510Y-59230261D01*
X97091498Y-59230264D01*
X96945827Y-59290602D01*
X96945814Y-59290609D01*
X96814711Y-59378210D01*
X96814707Y-59378213D01*
X96777681Y-59415240D01*
X96716358Y-59448725D01*
X96646666Y-59443741D01*
X96602319Y-59415240D01*
X96565292Y-59378213D01*
X96565288Y-59378210D01*
X96434185Y-59290609D01*
X96434172Y-59290602D01*
X96288501Y-59230264D01*
X96288489Y-59230261D01*
X96133845Y-59199500D01*
X96133842Y-59199500D01*
X95976158Y-59199500D01*
X95976155Y-59199500D01*
X95821510Y-59230261D01*
X95821498Y-59230264D01*
X95675827Y-59290602D01*
X95675814Y-59290609D01*
X95544711Y-59378210D01*
X95544707Y-59378213D01*
X95433213Y-59489707D01*
X95433210Y-59489711D01*
X95345609Y-59620814D01*
X95345602Y-59620827D01*
X95285264Y-59766498D01*
X95285261Y-59766510D01*
X95254500Y-59921153D01*
X95000500Y-59921153D01*
X95000500Y-57171153D01*
X112199500Y-57171153D01*
X112199500Y-57328846D01*
X112230261Y-57483489D01*
X112230264Y-57483501D01*
X112290602Y-57629172D01*
X112290609Y-57629185D01*
X112378210Y-57760288D01*
X112378213Y-57760292D01*
X112489707Y-57871786D01*
X112489711Y-57871789D01*
X112620814Y-57959390D01*
X112620827Y-57959397D01*
X112766498Y-58019735D01*
X112766503Y-58019737D01*
X112921153Y-58050499D01*
X112921156Y-58050500D01*
X112921158Y-58050500D01*
X113078844Y-58050500D01*
X113078845Y-58050499D01*
X113233497Y-58019737D01*
X113379179Y-57959394D01*
X113510289Y-57871789D01*
X113621789Y-57760289D01*
X113709394Y-57629179D01*
X113769737Y-57483497D01*
X113800500Y-57328842D01*
X113800500Y-57171158D01*
X113800500Y-57171155D01*
X113800499Y-57171153D01*
X122199500Y-57171153D01*
X122199500Y-57328846D01*
X122230261Y-57483489D01*
X122230264Y-57483501D01*
X122290602Y-57629172D01*
X122290609Y-57629185D01*
X122378210Y-57760288D01*
X122378213Y-57760292D01*
X122489707Y-57871786D01*
X122489711Y-57871789D01*
X122620814Y-57959390D01*
X122620827Y-57959397D01*
X122766498Y-58019735D01*
X122766503Y-58019737D01*
X122921153Y-58050499D01*
X122921156Y-58050500D01*
X122921158Y-58050500D01*
X123078844Y-58050500D01*
X123078845Y-58050499D01*
X123233497Y-58019737D01*
X123379179Y-57959394D01*
X123510289Y-57871789D01*
X123621789Y-57760289D01*
X123709394Y-57629179D01*
X123769737Y-57483497D01*
X123800500Y-57328842D01*
X123800500Y-57171158D01*
X123800500Y-57171155D01*
X123800499Y-57171153D01*
X132199500Y-57171153D01*
X132199500Y-57328846D01*
X132230261Y-57483489D01*
X132230264Y-57483501D01*
X132290602Y-57629172D01*
X132290609Y-57629185D01*
X132378210Y-57760288D01*
X132378213Y-57760292D01*
X132489707Y-57871786D01*
X132489711Y-57871789D01*
X132620814Y-57959390D01*
X132620827Y-57959397D01*
X132766498Y-58019735D01*
X132766503Y-58019737D01*
X132921153Y-58050499D01*
X132921156Y-58050500D01*
X132921158Y-58050500D01*
X133078844Y-58050500D01*
X133078845Y-58050499D01*
X133233497Y-58019737D01*
X133379179Y-57959394D01*
X133510289Y-57871789D01*
X133621789Y-57760289D01*
X133709394Y-57629179D01*
X133769737Y-57483497D01*
X133800500Y-57328842D01*
X133800500Y-57171158D01*
X133800500Y-57171155D01*
X133800499Y-57171153D01*
X142199500Y-57171153D01*
X142199500Y-57328846D01*
X142230261Y-57483489D01*
X142230264Y-57483501D01*
X142290602Y-57629172D01*
X142290609Y-57629185D01*
X142378210Y-57760288D01*
X142378213Y-57760292D01*
X142489707Y-57871786D01*
X142489711Y-57871789D01*
X142620814Y-57959390D01*
X142620827Y-57959397D01*
X142766498Y-58019735D01*
X142766503Y-58019737D01*
X142921153Y-58050499D01*
X142921156Y-58050500D01*
X142921158Y-58050500D01*
X143078844Y-58050500D01*
X143078845Y-58050499D01*
X143233497Y-58019737D01*
X143379179Y-57959394D01*
X143510289Y-57871789D01*
X143621789Y-57760289D01*
X143709394Y-57629179D01*
X143769737Y-57483497D01*
X143800500Y-57328842D01*
X143800500Y-57171158D01*
X143800500Y-57171155D01*
X143800499Y-57171153D01*
X162199500Y-57171153D01*
X162199500Y-57328846D01*
X162230261Y-57483489D01*
X162230264Y-57483501D01*
X162290602Y-57629172D01*
X162290609Y-57629185D01*
X162378210Y-57760288D01*
X162378213Y-57760292D01*
X162489707Y-57871786D01*
X162489711Y-57871789D01*
X162620814Y-57959390D01*
X162620827Y-57959397D01*
X162766498Y-58019735D01*
X162766503Y-58019737D01*
X162921153Y-58050499D01*
X162921156Y-58050500D01*
X162921158Y-58050500D01*
X163078844Y-58050500D01*
X163078845Y-58050499D01*
X163233497Y-58019737D01*
X163379179Y-57959394D01*
X163510289Y-57871789D01*
X163621789Y-57760289D01*
X163709394Y-57629179D01*
X163769737Y-57483497D01*
X163800500Y-57328842D01*
X163800500Y-57171158D01*
X163800500Y-57171155D01*
X163800499Y-57171153D01*
X163778509Y-57060603D01*
X163769737Y-57016503D01*
X163769735Y-57016498D01*
X163709397Y-56870827D01*
X163709390Y-56870814D01*
X163621789Y-56739711D01*
X163621786Y-56739707D01*
X163510292Y-56628213D01*
X163510288Y-56628210D01*
X163379185Y-56540609D01*
X163379172Y-56540602D01*
X163233501Y-56480264D01*
X163233489Y-56480261D01*
X163078845Y-56449500D01*
X163078842Y-56449500D01*
X162921158Y-56449500D01*
X162921155Y-56449500D01*
X162766510Y-56480261D01*
X162766498Y-56480264D01*
X162620827Y-56540602D01*
X162620814Y-56540609D01*
X162489711Y-56628210D01*
X162489707Y-56628213D01*
X162378213Y-56739707D01*
X162378210Y-56739711D01*
X162290609Y-56870814D01*
X162290602Y-56870827D01*
X162230264Y-57016498D01*
X162230261Y-57016510D01*
X162199500Y-57171153D01*
X143800499Y-57171153D01*
X143778509Y-57060603D01*
X143769737Y-57016503D01*
X143769735Y-57016498D01*
X143709397Y-56870827D01*
X143709390Y-56870814D01*
X143621789Y-56739711D01*
X143621786Y-56739707D01*
X143510292Y-56628213D01*
X143510288Y-56628210D01*
X143379185Y-56540609D01*
X143379172Y-56540602D01*
X143233501Y-56480264D01*
X143233489Y-56480261D01*
X143078845Y-56449500D01*
X143078842Y-56449500D01*
X142921158Y-56449500D01*
X142921155Y-56449500D01*
X142766510Y-56480261D01*
X142766498Y-56480264D01*
X142620827Y-56540602D01*
X142620814Y-56540609D01*
X142489711Y-56628210D01*
X142489707Y-56628213D01*
X142378213Y-56739707D01*
X142378210Y-56739711D01*
X142290609Y-56870814D01*
X142290602Y-56870827D01*
X142230264Y-57016498D01*
X142230261Y-57016510D01*
X142199500Y-57171153D01*
X133800499Y-57171153D01*
X133778509Y-57060603D01*
X133769737Y-57016503D01*
X133769735Y-57016498D01*
X133709397Y-56870827D01*
X133709390Y-56870814D01*
X133621789Y-56739711D01*
X133621786Y-56739707D01*
X133510292Y-56628213D01*
X133510288Y-56628210D01*
X133379185Y-56540609D01*
X133379172Y-56540602D01*
X133233501Y-56480264D01*
X133233489Y-56480261D01*
X133078845Y-56449500D01*
X133078842Y-56449500D01*
X132921158Y-56449500D01*
X132921155Y-56449500D01*
X132766510Y-56480261D01*
X132766498Y-56480264D01*
X132620827Y-56540602D01*
X132620814Y-56540609D01*
X132489711Y-56628210D01*
X132489707Y-56628213D01*
X132378213Y-56739707D01*
X132378210Y-56739711D01*
X132290609Y-56870814D01*
X132290602Y-56870827D01*
X132230264Y-57016498D01*
X132230261Y-57016510D01*
X132199500Y-57171153D01*
X123800499Y-57171153D01*
X123778509Y-57060603D01*
X123769737Y-57016503D01*
X123769735Y-57016498D01*
X123709397Y-56870827D01*
X123709390Y-56870814D01*
X123621789Y-56739711D01*
X123621786Y-56739707D01*
X123510292Y-56628213D01*
X123510288Y-56628210D01*
X123379185Y-56540609D01*
X123379172Y-56540602D01*
X123233501Y-56480264D01*
X123233489Y-56480261D01*
X123078845Y-56449500D01*
X123078842Y-56449500D01*
X122921158Y-56449500D01*
X122921155Y-56449500D01*
X122766510Y-56480261D01*
X122766498Y-56480264D01*
X122620827Y-56540602D01*
X122620814Y-56540609D01*
X122489711Y-56628210D01*
X122489707Y-56628213D01*
X122378213Y-56739707D01*
X122378210Y-56739711D01*
X122290609Y-56870814D01*
X122290602Y-56870827D01*
X122230264Y-57016498D01*
X122230261Y-57016510D01*
X122199500Y-57171153D01*
X113800499Y-57171153D01*
X113778509Y-57060603D01*
X113769737Y-57016503D01*
X113769735Y-57016498D01*
X113709397Y-56870827D01*
X113709390Y-56870814D01*
X113621789Y-56739711D01*
X113621786Y-56739707D01*
X113510292Y-56628213D01*
X113510288Y-56628210D01*
X113379185Y-56540609D01*
X113379172Y-56540602D01*
X113233501Y-56480264D01*
X113233489Y-56480261D01*
X113078845Y-56449500D01*
X113078842Y-56449500D01*
X112921158Y-56449500D01*
X112921155Y-56449500D01*
X112766510Y-56480261D01*
X112766498Y-56480264D01*
X112620827Y-56540602D01*
X112620814Y-56540609D01*
X112489711Y-56628210D01*
X112489707Y-56628213D01*
X112378213Y-56739707D01*
X112378210Y-56739711D01*
X112290609Y-56870814D01*
X112290602Y-56870827D01*
X112230264Y-57016498D01*
X112230261Y-57016510D01*
X112199500Y-57171153D01*
X95000500Y-57171153D01*
X95000500Y-56302190D01*
X95020185Y-56235151D01*
X95072989Y-56189396D01*
X95142147Y-56179452D01*
X95205703Y-56208477D01*
X95239061Y-56254738D01*
X95290602Y-56379172D01*
X95290609Y-56379185D01*
X95378210Y-56510288D01*
X95378213Y-56510292D01*
X95489707Y-56621786D01*
X95489711Y-56621789D01*
X95620814Y-56709390D01*
X95620827Y-56709397D01*
X95694013Y-56739711D01*
X95766503Y-56769737D01*
X95921153Y-56800499D01*
X95921156Y-56800500D01*
X95921158Y-56800500D01*
X96078844Y-56800500D01*
X96078845Y-56800499D01*
X96233497Y-56769737D01*
X96379179Y-56709394D01*
X96510289Y-56621789D01*
X96621789Y-56510289D01*
X96709394Y-56379179D01*
X96769737Y-56233497D01*
X96800500Y-56078842D01*
X96800500Y-55921158D01*
X96800500Y-55921155D01*
X96800499Y-55921153D01*
X96769738Y-55766510D01*
X96769737Y-55766503D01*
X96760938Y-55745261D01*
X96709397Y-55620827D01*
X96709390Y-55620814D01*
X96621789Y-55489711D01*
X96621786Y-55489707D01*
X96510292Y-55378213D01*
X96510288Y-55378210D01*
X96379185Y-55290609D01*
X96379173Y-55290602D01*
X96352674Y-55279627D01*
X96233501Y-55230264D01*
X96233489Y-55230261D01*
X96078845Y-55199500D01*
X96078842Y-55199500D01*
X95921158Y-55199500D01*
X95921155Y-55199500D01*
X95766510Y-55230261D01*
X95766498Y-55230264D01*
X95620827Y-55290602D01*
X95620814Y-55290609D01*
X95489711Y-55378210D01*
X95489707Y-55378213D01*
X95378213Y-55489707D01*
X95378210Y-55489711D01*
X95290609Y-55620814D01*
X95290602Y-55620827D01*
X95239061Y-55745261D01*
X95195220Y-55799665D01*
X95128926Y-55821730D01*
X95061227Y-55804451D01*
X95013616Y-55753314D01*
X95000500Y-55697809D01*
X95000500Y-55171153D01*
X103449500Y-55171153D01*
X103449500Y-55328846D01*
X103480261Y-55483489D01*
X103480264Y-55483501D01*
X103540602Y-55629172D01*
X103540609Y-55629185D01*
X103628210Y-55760288D01*
X103628213Y-55760292D01*
X103739707Y-55871786D01*
X103739711Y-55871789D01*
X103870814Y-55959390D01*
X103870827Y-55959397D01*
X104016498Y-56019735D01*
X104016503Y-56019737D01*
X104171153Y-56050499D01*
X104171156Y-56050500D01*
X104171158Y-56050500D01*
X104328844Y-56050500D01*
X104328845Y-56050499D01*
X104483497Y-56019737D01*
X104629179Y-55959394D01*
X104686411Y-55921153D01*
X105199500Y-55921153D01*
X105199500Y-56078846D01*
X105230261Y-56233489D01*
X105230264Y-56233501D01*
X105290602Y-56379172D01*
X105290609Y-56379185D01*
X105378210Y-56510288D01*
X105378213Y-56510292D01*
X105489707Y-56621786D01*
X105489711Y-56621789D01*
X105620814Y-56709390D01*
X105620827Y-56709397D01*
X105694013Y-56739711D01*
X105766503Y-56769737D01*
X105921153Y-56800499D01*
X105921156Y-56800500D01*
X105921158Y-56800500D01*
X106078844Y-56800500D01*
X106078845Y-56800499D01*
X106233497Y-56769737D01*
X106379179Y-56709394D01*
X106510289Y-56621789D01*
X106621789Y-56510289D01*
X106709394Y-56379179D01*
X106769737Y-56233497D01*
X106800500Y-56078842D01*
X106800500Y-55921158D01*
X106800500Y-55921155D01*
X106800499Y-55921153D01*
X115199500Y-55921153D01*
X115199500Y-56078846D01*
X115230261Y-56233489D01*
X115230264Y-56233501D01*
X115290602Y-56379172D01*
X115290609Y-56379185D01*
X115378210Y-56510288D01*
X115378213Y-56510292D01*
X115489707Y-56621786D01*
X115489711Y-56621789D01*
X115620814Y-56709390D01*
X115620827Y-56709397D01*
X115694013Y-56739711D01*
X115766503Y-56769737D01*
X115921153Y-56800499D01*
X115921156Y-56800500D01*
X115921158Y-56800500D01*
X116078844Y-56800500D01*
X116078845Y-56800499D01*
X116233497Y-56769737D01*
X116379179Y-56709394D01*
X116510289Y-56621789D01*
X116621789Y-56510289D01*
X116709394Y-56379179D01*
X116769737Y-56233497D01*
X116800500Y-56078842D01*
X116800500Y-55921158D01*
X116800500Y-55921155D01*
X116800499Y-55921153D01*
X125199500Y-55921153D01*
X125199500Y-56078846D01*
X125230261Y-56233489D01*
X125230264Y-56233501D01*
X125290602Y-56379172D01*
X125290609Y-56379185D01*
X125378210Y-56510288D01*
X125378213Y-56510292D01*
X125489707Y-56621786D01*
X125489711Y-56621789D01*
X125620814Y-56709390D01*
X125620827Y-56709397D01*
X125694013Y-56739711D01*
X125766503Y-56769737D01*
X125921153Y-56800499D01*
X125921156Y-56800500D01*
X125921158Y-56800500D01*
X126078844Y-56800500D01*
X126078845Y-56800499D01*
X126233497Y-56769737D01*
X126379179Y-56709394D01*
X126510289Y-56621789D01*
X126621789Y-56510289D01*
X126709394Y-56379179D01*
X126769737Y-56233497D01*
X126800500Y-56078842D01*
X126800500Y-55921158D01*
X126800500Y-55921155D01*
X126800499Y-55921153D01*
X126769738Y-55766510D01*
X126769737Y-55766503D01*
X126760938Y-55745261D01*
X126709397Y-55620827D01*
X126709390Y-55620814D01*
X126621789Y-55489711D01*
X126621786Y-55489707D01*
X126510292Y-55378213D01*
X126510288Y-55378210D01*
X126379185Y-55290609D01*
X126379172Y-55290602D01*
X126233501Y-55230264D01*
X126233489Y-55230261D01*
X126078845Y-55199500D01*
X126078842Y-55199500D01*
X125921158Y-55199500D01*
X125921155Y-55199500D01*
X125766510Y-55230261D01*
X125766498Y-55230264D01*
X125620827Y-55290602D01*
X125620814Y-55290609D01*
X125489711Y-55378210D01*
X125489707Y-55378213D01*
X125378213Y-55489707D01*
X125378210Y-55489711D01*
X125290609Y-55620814D01*
X125290602Y-55620827D01*
X125230264Y-55766498D01*
X125230261Y-55766510D01*
X125199500Y-55921153D01*
X116800499Y-55921153D01*
X116769738Y-55766510D01*
X116769737Y-55766503D01*
X116760938Y-55745261D01*
X116709397Y-55620827D01*
X116709390Y-55620814D01*
X116621789Y-55489711D01*
X116621786Y-55489707D01*
X116510292Y-55378213D01*
X116510288Y-55378210D01*
X116379185Y-55290609D01*
X116379172Y-55290602D01*
X116233501Y-55230264D01*
X116233489Y-55230261D01*
X116078845Y-55199500D01*
X116078842Y-55199500D01*
X115921158Y-55199500D01*
X115921155Y-55199500D01*
X115766510Y-55230261D01*
X115766498Y-55230264D01*
X115620827Y-55290602D01*
X115620814Y-55290609D01*
X115489711Y-55378210D01*
X115489707Y-55378213D01*
X115378213Y-55489707D01*
X115378210Y-55489711D01*
X115290609Y-55620814D01*
X115290602Y-55620827D01*
X115230264Y-55766498D01*
X115230261Y-55766510D01*
X115199500Y-55921153D01*
X106800499Y-55921153D01*
X106769738Y-55766510D01*
X106769737Y-55766503D01*
X106760938Y-55745261D01*
X106709397Y-55620827D01*
X106709390Y-55620814D01*
X106621789Y-55489711D01*
X106621786Y-55489707D01*
X106510292Y-55378213D01*
X106510288Y-55378210D01*
X106379185Y-55290609D01*
X106379172Y-55290602D01*
X106233501Y-55230264D01*
X106233489Y-55230261D01*
X106078845Y-55199500D01*
X106078842Y-55199500D01*
X105921158Y-55199500D01*
X105921155Y-55199500D01*
X105766510Y-55230261D01*
X105766498Y-55230264D01*
X105620827Y-55290602D01*
X105620814Y-55290609D01*
X105489711Y-55378210D01*
X105489707Y-55378213D01*
X105378213Y-55489707D01*
X105378210Y-55489711D01*
X105290609Y-55620814D01*
X105290602Y-55620827D01*
X105230264Y-55766498D01*
X105230261Y-55766510D01*
X105199500Y-55921153D01*
X104686411Y-55921153D01*
X104760289Y-55871789D01*
X104760292Y-55871786D01*
X104804694Y-55827385D01*
X104871786Y-55760292D01*
X104871789Y-55760289D01*
X104959394Y-55629179D01*
X104962854Y-55620827D01*
X105017163Y-55489711D01*
X105019737Y-55483497D01*
X105050500Y-55328842D01*
X105050500Y-55171158D01*
X105050500Y-55171155D01*
X105050499Y-55171153D01*
X105019738Y-55016510D01*
X105019737Y-55016503D01*
X105019735Y-55016498D01*
X104959397Y-54870827D01*
X104959390Y-54870814D01*
X104871789Y-54739711D01*
X104871786Y-54739707D01*
X104760292Y-54628213D01*
X104760288Y-54628210D01*
X104629185Y-54540609D01*
X104629172Y-54540602D01*
X104483501Y-54480264D01*
X104483489Y-54480261D01*
X104328845Y-54449500D01*
X104328842Y-54449500D01*
X104171158Y-54449500D01*
X104171155Y-54449500D01*
X104016510Y-54480261D01*
X104016498Y-54480264D01*
X103870827Y-54540602D01*
X103870814Y-54540609D01*
X103739711Y-54628210D01*
X103739707Y-54628213D01*
X103628213Y-54739707D01*
X103628210Y-54739711D01*
X103540609Y-54870814D01*
X103540602Y-54870827D01*
X103480264Y-55016498D01*
X103480261Y-55016510D01*
X103449500Y-55171153D01*
X95000500Y-55171153D01*
X95000500Y-53421153D01*
X170199500Y-53421153D01*
X170199500Y-53578846D01*
X170230261Y-53733489D01*
X170230264Y-53733501D01*
X170290602Y-53879172D01*
X170290609Y-53879185D01*
X170378210Y-54010288D01*
X170378213Y-54010292D01*
X170489707Y-54121786D01*
X170489711Y-54121789D01*
X170620814Y-54209390D01*
X170620827Y-54209397D01*
X170766498Y-54269735D01*
X170766503Y-54269737D01*
X170921153Y-54300499D01*
X170921156Y-54300500D01*
X170921158Y-54300500D01*
X171078844Y-54300500D01*
X171078845Y-54300499D01*
X171233497Y-54269737D01*
X171379179Y-54209394D01*
X171510289Y-54121789D01*
X171621789Y-54010289D01*
X171709394Y-53879179D01*
X171769737Y-53733497D01*
X171800500Y-53578842D01*
X171800500Y-53421158D01*
X171800500Y-53421155D01*
X171800499Y-53421153D01*
X171769738Y-53266510D01*
X171769737Y-53266503D01*
X171769735Y-53266498D01*
X171709397Y-53120827D01*
X171709390Y-53120814D01*
X171621789Y-52989711D01*
X171621786Y-52989707D01*
X171510292Y-52878213D01*
X171510288Y-52878210D01*
X171379185Y-52790609D01*
X171379172Y-52790602D01*
X171233501Y-52730264D01*
X171233489Y-52730261D01*
X171078845Y-52699500D01*
X171078842Y-52699500D01*
X170921158Y-52699500D01*
X170921155Y-52699500D01*
X170766510Y-52730261D01*
X170766498Y-52730264D01*
X170620827Y-52790602D01*
X170620814Y-52790609D01*
X170489711Y-52878210D01*
X170489707Y-52878213D01*
X170378213Y-52989707D01*
X170378210Y-52989711D01*
X170290609Y-53120814D01*
X170290602Y-53120827D01*
X170230264Y-53266498D01*
X170230261Y-53266510D01*
X170199500Y-53421153D01*
X95000500Y-53421153D01*
X95000500Y-51921153D01*
X97794500Y-51921153D01*
X97794500Y-52078846D01*
X97825261Y-52233489D01*
X97825264Y-52233501D01*
X97885602Y-52379172D01*
X97885609Y-52379185D01*
X97973210Y-52510288D01*
X97973213Y-52510292D01*
X98084707Y-52621786D01*
X98084711Y-52621789D01*
X98215814Y-52709390D01*
X98215827Y-52709397D01*
X98361498Y-52769735D01*
X98361503Y-52769737D01*
X98516153Y-52800499D01*
X98516156Y-52800500D01*
X98516158Y-52800500D01*
X98673844Y-52800500D01*
X98673845Y-52800499D01*
X98828497Y-52769737D01*
X98974179Y-52709394D01*
X99105289Y-52621789D01*
X99105292Y-52621786D01*
X99142319Y-52584760D01*
X99203642Y-52551275D01*
X99273334Y-52556259D01*
X99317681Y-52584760D01*
X99354707Y-52621786D01*
X99354711Y-52621789D01*
X99485814Y-52709390D01*
X99485827Y-52709397D01*
X99631498Y-52769735D01*
X99631503Y-52769737D01*
X99786153Y-52800499D01*
X99786156Y-52800500D01*
X99786158Y-52800500D01*
X99943844Y-52800500D01*
X99943845Y-52800499D01*
X100098497Y-52769737D01*
X100244179Y-52709394D01*
X100375289Y-52621789D01*
X100375292Y-52621786D01*
X100412319Y-52584760D01*
X100473642Y-52551275D01*
X100543334Y-52556259D01*
X100587681Y-52584760D01*
X100624707Y-52621786D01*
X100624711Y-52621789D01*
X100755814Y-52709390D01*
X100755827Y-52709397D01*
X100901498Y-52769735D01*
X100901503Y-52769737D01*
X101056153Y-52800499D01*
X101056156Y-52800500D01*
X101056158Y-52800500D01*
X101213844Y-52800500D01*
X101213845Y-52800499D01*
X101368497Y-52769737D01*
X101514179Y-52709394D01*
X101645289Y-52621789D01*
X101756789Y-52510289D01*
X101844394Y-52379179D01*
X101904737Y-52233497D01*
X101935500Y-52078842D01*
X101935500Y-51921158D01*
X101935500Y-51921155D01*
X101935499Y-51921153D01*
X101904738Y-51766510D01*
X101904737Y-51766503D01*
X101904735Y-51766498D01*
X101844397Y-51620827D01*
X101844390Y-51620814D01*
X101756789Y-51489711D01*
X101756786Y-51489707D01*
X101645292Y-51378213D01*
X101645288Y-51378210D01*
X101514185Y-51290609D01*
X101514172Y-51290602D01*
X101368501Y-51230264D01*
X101368489Y-51230261D01*
X101213845Y-51199500D01*
X101213842Y-51199500D01*
X101056158Y-51199500D01*
X101056155Y-51199500D01*
X100901510Y-51230261D01*
X100901498Y-51230264D01*
X100755827Y-51290602D01*
X100755814Y-51290609D01*
X100624711Y-51378210D01*
X100624707Y-51378213D01*
X100587681Y-51415240D01*
X100526358Y-51448725D01*
X100456666Y-51443741D01*
X100412319Y-51415240D01*
X100375292Y-51378213D01*
X100375288Y-51378210D01*
X100244185Y-51290609D01*
X100244172Y-51290602D01*
X100098501Y-51230264D01*
X100098489Y-51230261D01*
X99943845Y-51199500D01*
X99943842Y-51199500D01*
X99786158Y-51199500D01*
X99786155Y-51199500D01*
X99631510Y-51230261D01*
X99631498Y-51230264D01*
X99485827Y-51290602D01*
X99485814Y-51290609D01*
X99354711Y-51378210D01*
X99354707Y-51378213D01*
X99317681Y-51415240D01*
X99256358Y-51448725D01*
X99186666Y-51443741D01*
X99142319Y-51415240D01*
X99105292Y-51378213D01*
X99105288Y-51378210D01*
X98974185Y-51290609D01*
X98974172Y-51290602D01*
X98828501Y-51230264D01*
X98828489Y-51230261D01*
X98673845Y-51199500D01*
X98673842Y-51199500D01*
X98516158Y-51199500D01*
X98516155Y-51199500D01*
X98361510Y-51230261D01*
X98361498Y-51230264D01*
X98215827Y-51290602D01*
X98215814Y-51290609D01*
X98084711Y-51378210D01*
X98084707Y-51378213D01*
X97973213Y-51489707D01*
X97973210Y-51489711D01*
X97885609Y-51620814D01*
X97885602Y-51620827D01*
X97825264Y-51766498D01*
X97825261Y-51766510D01*
X97794500Y-51921153D01*
X95000500Y-51921153D01*
X95000500Y-49921153D01*
X95254500Y-49921153D01*
X95254500Y-50078846D01*
X95285261Y-50233489D01*
X95285264Y-50233501D01*
X95345602Y-50379172D01*
X95345609Y-50379185D01*
X95433210Y-50510288D01*
X95433213Y-50510292D01*
X95544707Y-50621786D01*
X95544711Y-50621789D01*
X95675814Y-50709390D01*
X95675827Y-50709397D01*
X95821498Y-50769735D01*
X95821503Y-50769737D01*
X95976153Y-50800499D01*
X95976156Y-50800500D01*
X95976158Y-50800500D01*
X96133844Y-50800500D01*
X96133845Y-50800499D01*
X96288497Y-50769737D01*
X96434179Y-50709394D01*
X96565289Y-50621789D01*
X96565292Y-50621786D01*
X96602319Y-50584760D01*
X96663642Y-50551275D01*
X96733334Y-50556259D01*
X96777681Y-50584760D01*
X96814707Y-50621786D01*
X96814711Y-50621789D01*
X96945814Y-50709390D01*
X96945827Y-50709397D01*
X97091498Y-50769735D01*
X97091503Y-50769737D01*
X97246153Y-50800499D01*
X97246156Y-50800500D01*
X97246158Y-50800500D01*
X97403844Y-50800500D01*
X97403845Y-50800499D01*
X97558497Y-50769737D01*
X97704179Y-50709394D01*
X97835289Y-50621789D01*
X97835292Y-50621786D01*
X97872319Y-50584760D01*
X97933642Y-50551275D01*
X98003334Y-50556259D01*
X98047681Y-50584760D01*
X98084707Y-50621786D01*
X98084711Y-50621789D01*
X98215814Y-50709390D01*
X98215827Y-50709397D01*
X98361498Y-50769735D01*
X98361503Y-50769737D01*
X98516153Y-50800499D01*
X98516156Y-50800500D01*
X98516158Y-50800500D01*
X98673844Y-50800500D01*
X98673845Y-50800499D01*
X98828497Y-50769737D01*
X98974179Y-50709394D01*
X99105289Y-50621789D01*
X99105292Y-50621786D01*
X99142319Y-50584760D01*
X99203642Y-50551275D01*
X99273334Y-50556259D01*
X99317681Y-50584760D01*
X99354707Y-50621786D01*
X99354711Y-50621789D01*
X99485814Y-50709390D01*
X99485827Y-50709397D01*
X99631498Y-50769735D01*
X99631503Y-50769737D01*
X99786153Y-50800499D01*
X99786156Y-50800500D01*
X99786158Y-50800500D01*
X99943844Y-50800500D01*
X99943845Y-50800499D01*
X100098497Y-50769737D01*
X100244179Y-50709394D01*
X100375289Y-50621789D01*
X100375292Y-50621786D01*
X100412319Y-50584760D01*
X100473642Y-50551275D01*
X100543334Y-50556259D01*
X100587681Y-50584760D01*
X100624707Y-50621786D01*
X100624711Y-50621789D01*
X100755814Y-50709390D01*
X100755827Y-50709397D01*
X100901498Y-50769735D01*
X100901503Y-50769737D01*
X101056153Y-50800499D01*
X101056156Y-50800500D01*
X101056158Y-50800500D01*
X101213844Y-50800500D01*
X101213845Y-50800499D01*
X101368497Y-50769737D01*
X101514179Y-50709394D01*
X101645289Y-50621789D01*
X101756789Y-50510289D01*
X101844394Y-50379179D01*
X101904737Y-50233497D01*
X101935500Y-50078842D01*
X101935500Y-49921158D01*
X101935500Y-49921155D01*
X101935499Y-49921153D01*
X101904738Y-49766510D01*
X101904737Y-49766503D01*
X101904735Y-49766498D01*
X101844397Y-49620827D01*
X101844390Y-49620814D01*
X101756789Y-49489711D01*
X101756786Y-49489707D01*
X101645292Y-49378213D01*
X101645288Y-49378210D01*
X101514185Y-49290609D01*
X101514172Y-49290602D01*
X101368501Y-49230264D01*
X101368489Y-49230261D01*
X101213845Y-49199500D01*
X101213842Y-49199500D01*
X101056158Y-49199500D01*
X101056155Y-49199500D01*
X100901510Y-49230261D01*
X100901498Y-49230264D01*
X100755827Y-49290602D01*
X100755814Y-49290609D01*
X100624711Y-49378210D01*
X100624707Y-49378213D01*
X100587681Y-49415240D01*
X100526358Y-49448725D01*
X100456666Y-49443741D01*
X100412319Y-49415240D01*
X100375292Y-49378213D01*
X100375288Y-49378210D01*
X100244185Y-49290609D01*
X100244172Y-49290602D01*
X100098501Y-49230264D01*
X100098489Y-49230261D01*
X99943845Y-49199500D01*
X99943842Y-49199500D01*
X99786158Y-49199500D01*
X99786155Y-49199500D01*
X99631510Y-49230261D01*
X99631498Y-49230264D01*
X99485827Y-49290602D01*
X99485814Y-49290609D01*
X99354711Y-49378210D01*
X99354707Y-49378213D01*
X99317681Y-49415240D01*
X99256358Y-49448725D01*
X99186666Y-49443741D01*
X99142319Y-49415240D01*
X99105292Y-49378213D01*
X99105288Y-49378210D01*
X98974185Y-49290609D01*
X98974172Y-49290602D01*
X98828501Y-49230264D01*
X98828489Y-49230261D01*
X98673845Y-49199500D01*
X98673842Y-49199500D01*
X98516158Y-49199500D01*
X98516155Y-49199500D01*
X98361510Y-49230261D01*
X98361498Y-49230264D01*
X98215827Y-49290602D01*
X98215814Y-49290609D01*
X98084711Y-49378210D01*
X98084707Y-49378213D01*
X98047681Y-49415240D01*
X97986358Y-49448725D01*
X97916666Y-49443741D01*
X97872319Y-49415240D01*
X97835292Y-49378213D01*
X97835288Y-49378210D01*
X97704185Y-49290609D01*
X97704172Y-49290602D01*
X97558501Y-49230264D01*
X97558489Y-49230261D01*
X97403845Y-49199500D01*
X97403842Y-49199500D01*
X97246158Y-49199500D01*
X97246155Y-49199500D01*
X97091510Y-49230261D01*
X97091498Y-49230264D01*
X96945827Y-49290602D01*
X96945814Y-49290609D01*
X96814711Y-49378210D01*
X96814707Y-49378213D01*
X96777681Y-49415240D01*
X96716358Y-49448725D01*
X96646666Y-49443741D01*
X96602319Y-49415240D01*
X96565292Y-49378213D01*
X96565288Y-49378210D01*
X96434185Y-49290609D01*
X96434172Y-49290602D01*
X96288501Y-49230264D01*
X96288489Y-49230261D01*
X96133845Y-49199500D01*
X96133842Y-49199500D01*
X95976158Y-49199500D01*
X95976155Y-49199500D01*
X95821510Y-49230261D01*
X95821498Y-49230264D01*
X95675827Y-49290602D01*
X95675814Y-49290609D01*
X95544711Y-49378210D01*
X95544707Y-49378213D01*
X95433213Y-49489707D01*
X95433210Y-49489711D01*
X95345609Y-49620814D01*
X95345602Y-49620827D01*
X95285264Y-49766498D01*
X95285261Y-49766510D01*
X95254500Y-49921153D01*
X95000500Y-49921153D01*
X95000500Y-47171153D01*
X112199500Y-47171153D01*
X112199500Y-47328846D01*
X112230261Y-47483489D01*
X112230264Y-47483501D01*
X112290602Y-47629172D01*
X112290609Y-47629185D01*
X112378210Y-47760288D01*
X112378213Y-47760292D01*
X112489707Y-47871786D01*
X112489711Y-47871789D01*
X112620814Y-47959390D01*
X112620827Y-47959397D01*
X112766498Y-48019735D01*
X112766503Y-48019737D01*
X112921153Y-48050499D01*
X112921156Y-48050500D01*
X112921158Y-48050500D01*
X113078844Y-48050500D01*
X113078845Y-48050499D01*
X113233497Y-48019737D01*
X113379179Y-47959394D01*
X113510289Y-47871789D01*
X113621789Y-47760289D01*
X113709394Y-47629179D01*
X113769737Y-47483497D01*
X113800500Y-47328842D01*
X113800500Y-47171158D01*
X113800500Y-47171155D01*
X113800499Y-47171153D01*
X122199500Y-47171153D01*
X122199500Y-47328846D01*
X122230261Y-47483489D01*
X122230264Y-47483501D01*
X122290602Y-47629172D01*
X122290609Y-47629185D01*
X122378210Y-47760288D01*
X122378213Y-47760292D01*
X122489707Y-47871786D01*
X122489711Y-47871789D01*
X122620814Y-47959390D01*
X122620827Y-47959397D01*
X122766498Y-48019735D01*
X122766503Y-48019737D01*
X122921153Y-48050499D01*
X122921156Y-48050500D01*
X122921158Y-48050500D01*
X123078844Y-48050500D01*
X123078845Y-48050499D01*
X123233497Y-48019737D01*
X123379179Y-47959394D01*
X123510289Y-47871789D01*
X123621789Y-47760289D01*
X123709394Y-47629179D01*
X123769737Y-47483497D01*
X123800500Y-47328842D01*
X123800500Y-47171158D01*
X123800500Y-47171155D01*
X123800499Y-47171153D01*
X132199500Y-47171153D01*
X132199500Y-47328846D01*
X132230261Y-47483489D01*
X132230264Y-47483501D01*
X132290602Y-47629172D01*
X132290609Y-47629185D01*
X132378210Y-47760288D01*
X132378213Y-47760292D01*
X132489707Y-47871786D01*
X132489711Y-47871789D01*
X132620814Y-47959390D01*
X132620827Y-47959397D01*
X132766498Y-48019735D01*
X132766503Y-48019737D01*
X132921153Y-48050499D01*
X132921156Y-48050500D01*
X132921158Y-48050500D01*
X133078844Y-48050500D01*
X133078845Y-48050499D01*
X133233497Y-48019737D01*
X133379179Y-47959394D01*
X133510289Y-47871789D01*
X133621789Y-47760289D01*
X133709394Y-47629179D01*
X133769737Y-47483497D01*
X133800500Y-47328842D01*
X133800500Y-47171158D01*
X133800500Y-47171155D01*
X133800499Y-47171153D01*
X142199500Y-47171153D01*
X142199500Y-47328846D01*
X142230261Y-47483489D01*
X142230264Y-47483501D01*
X142290602Y-47629172D01*
X142290609Y-47629185D01*
X142378210Y-47760288D01*
X142378213Y-47760292D01*
X142489707Y-47871786D01*
X142489711Y-47871789D01*
X142620814Y-47959390D01*
X142620827Y-47959397D01*
X142766498Y-48019735D01*
X142766503Y-48019737D01*
X142921153Y-48050499D01*
X142921156Y-48050500D01*
X142921158Y-48050500D01*
X143078844Y-48050500D01*
X143078845Y-48050499D01*
X143233497Y-48019737D01*
X143379179Y-47959394D01*
X143510289Y-47871789D01*
X143621789Y-47760289D01*
X143709394Y-47629179D01*
X143769737Y-47483497D01*
X143800500Y-47328842D01*
X143800500Y-47171158D01*
X143800500Y-47171155D01*
X143800499Y-47171153D01*
X152199500Y-47171153D01*
X152199500Y-47328846D01*
X152230261Y-47483489D01*
X152230264Y-47483501D01*
X152290602Y-47629172D01*
X152290609Y-47629185D01*
X152378210Y-47760288D01*
X152378213Y-47760292D01*
X152489707Y-47871786D01*
X152489711Y-47871789D01*
X152620814Y-47959390D01*
X152620827Y-47959397D01*
X152766498Y-48019735D01*
X152766503Y-48019737D01*
X152921153Y-48050499D01*
X152921156Y-48050500D01*
X152921158Y-48050500D01*
X153078844Y-48050500D01*
X153078845Y-48050499D01*
X153233497Y-48019737D01*
X153379179Y-47959394D01*
X153510289Y-47871789D01*
X153621789Y-47760289D01*
X153709394Y-47629179D01*
X153769737Y-47483497D01*
X153800500Y-47328842D01*
X153800500Y-47171158D01*
X153800500Y-47171155D01*
X153800499Y-47171153D01*
X162199500Y-47171153D01*
X162199500Y-47328846D01*
X162230261Y-47483489D01*
X162230264Y-47483501D01*
X162290602Y-47629172D01*
X162290609Y-47629185D01*
X162378210Y-47760288D01*
X162378213Y-47760292D01*
X162489707Y-47871786D01*
X162489711Y-47871789D01*
X162620814Y-47959390D01*
X162620827Y-47959397D01*
X162766498Y-48019735D01*
X162766503Y-48019737D01*
X162921153Y-48050499D01*
X162921156Y-48050500D01*
X162921158Y-48050500D01*
X163078844Y-48050500D01*
X163078845Y-48050499D01*
X163233497Y-48019737D01*
X163379179Y-47959394D01*
X163510289Y-47871789D01*
X163621789Y-47760289D01*
X163709394Y-47629179D01*
X163769737Y-47483497D01*
X163800500Y-47328842D01*
X163800500Y-47171158D01*
X163800500Y-47171155D01*
X163800499Y-47171153D01*
X163778509Y-47060603D01*
X163769737Y-47016503D01*
X163769735Y-47016498D01*
X163709397Y-46870827D01*
X163709390Y-46870814D01*
X163621789Y-46739711D01*
X163621786Y-46739707D01*
X163510292Y-46628213D01*
X163510288Y-46628210D01*
X163379185Y-46540609D01*
X163379172Y-46540602D01*
X163233501Y-46480264D01*
X163233489Y-46480261D01*
X163078845Y-46449500D01*
X163078842Y-46449500D01*
X162921158Y-46449500D01*
X162921155Y-46449500D01*
X162766510Y-46480261D01*
X162766498Y-46480264D01*
X162620827Y-46540602D01*
X162620814Y-46540609D01*
X162489711Y-46628210D01*
X162489707Y-46628213D01*
X162378213Y-46739707D01*
X162378210Y-46739711D01*
X162290609Y-46870814D01*
X162290602Y-46870827D01*
X162230264Y-47016498D01*
X162230261Y-47016510D01*
X162199500Y-47171153D01*
X153800499Y-47171153D01*
X153778509Y-47060603D01*
X153769737Y-47016503D01*
X153769735Y-47016498D01*
X153709397Y-46870827D01*
X153709390Y-46870814D01*
X153621789Y-46739711D01*
X153621786Y-46739707D01*
X153510292Y-46628213D01*
X153510288Y-46628210D01*
X153379185Y-46540609D01*
X153379172Y-46540602D01*
X153233501Y-46480264D01*
X153233489Y-46480261D01*
X153078845Y-46449500D01*
X153078842Y-46449500D01*
X152921158Y-46449500D01*
X152921155Y-46449500D01*
X152766510Y-46480261D01*
X152766498Y-46480264D01*
X152620827Y-46540602D01*
X152620814Y-46540609D01*
X152489711Y-46628210D01*
X152489707Y-46628213D01*
X152378213Y-46739707D01*
X152378210Y-46739711D01*
X152290609Y-46870814D01*
X152290602Y-46870827D01*
X152230264Y-47016498D01*
X152230261Y-47016510D01*
X152199500Y-47171153D01*
X143800499Y-47171153D01*
X143778509Y-47060603D01*
X143769737Y-47016503D01*
X143769735Y-47016498D01*
X143709397Y-46870827D01*
X143709390Y-46870814D01*
X143621789Y-46739711D01*
X143621786Y-46739707D01*
X143510292Y-46628213D01*
X143510288Y-46628210D01*
X143379185Y-46540609D01*
X143379172Y-46540602D01*
X143233501Y-46480264D01*
X143233489Y-46480261D01*
X143078845Y-46449500D01*
X143078842Y-46449500D01*
X142921158Y-46449500D01*
X142921155Y-46449500D01*
X142766510Y-46480261D01*
X142766498Y-46480264D01*
X142620827Y-46540602D01*
X142620814Y-46540609D01*
X142489711Y-46628210D01*
X142489707Y-46628213D01*
X142378213Y-46739707D01*
X142378210Y-46739711D01*
X142290609Y-46870814D01*
X142290602Y-46870827D01*
X142230264Y-47016498D01*
X142230261Y-47016510D01*
X142199500Y-47171153D01*
X133800499Y-47171153D01*
X133778509Y-47060603D01*
X133769737Y-47016503D01*
X133769735Y-47016498D01*
X133709397Y-46870827D01*
X133709390Y-46870814D01*
X133621789Y-46739711D01*
X133621786Y-46739707D01*
X133510292Y-46628213D01*
X133510288Y-46628210D01*
X133379185Y-46540609D01*
X133379172Y-46540602D01*
X133233501Y-46480264D01*
X133233489Y-46480261D01*
X133078845Y-46449500D01*
X133078842Y-46449500D01*
X132921158Y-46449500D01*
X132921155Y-46449500D01*
X132766510Y-46480261D01*
X132766498Y-46480264D01*
X132620827Y-46540602D01*
X132620814Y-46540609D01*
X132489711Y-46628210D01*
X132489707Y-46628213D01*
X132378213Y-46739707D01*
X132378210Y-46739711D01*
X132290609Y-46870814D01*
X132290602Y-46870827D01*
X132230264Y-47016498D01*
X132230261Y-47016510D01*
X132199500Y-47171153D01*
X123800499Y-47171153D01*
X123778509Y-47060603D01*
X123769737Y-47016503D01*
X123769735Y-47016498D01*
X123709397Y-46870827D01*
X123709390Y-46870814D01*
X123621789Y-46739711D01*
X123621786Y-46739707D01*
X123510292Y-46628213D01*
X123510288Y-46628210D01*
X123379185Y-46540609D01*
X123379172Y-46540602D01*
X123233501Y-46480264D01*
X123233489Y-46480261D01*
X123078845Y-46449500D01*
X123078842Y-46449500D01*
X122921158Y-46449500D01*
X122921155Y-46449500D01*
X122766510Y-46480261D01*
X122766498Y-46480264D01*
X122620827Y-46540602D01*
X122620814Y-46540609D01*
X122489711Y-46628210D01*
X122489707Y-46628213D01*
X122378213Y-46739707D01*
X122378210Y-46739711D01*
X122290609Y-46870814D01*
X122290602Y-46870827D01*
X122230264Y-47016498D01*
X122230261Y-47016510D01*
X122199500Y-47171153D01*
X113800499Y-47171153D01*
X113778509Y-47060603D01*
X113769737Y-47016503D01*
X113769735Y-47016498D01*
X113709397Y-46870827D01*
X113709390Y-46870814D01*
X113621789Y-46739711D01*
X113621786Y-46739707D01*
X113510292Y-46628213D01*
X113510288Y-46628210D01*
X113379185Y-46540609D01*
X113379172Y-46540602D01*
X113233501Y-46480264D01*
X113233489Y-46480261D01*
X113078845Y-46449500D01*
X113078842Y-46449500D01*
X112921158Y-46449500D01*
X112921155Y-46449500D01*
X112766510Y-46480261D01*
X112766498Y-46480264D01*
X112620827Y-46540602D01*
X112620814Y-46540609D01*
X112489711Y-46628210D01*
X112489707Y-46628213D01*
X112378213Y-46739707D01*
X112378210Y-46739711D01*
X112290609Y-46870814D01*
X112290602Y-46870827D01*
X112230264Y-47016498D01*
X112230261Y-47016510D01*
X112199500Y-47171153D01*
X95000500Y-47171153D01*
X95000500Y-46302190D01*
X95020185Y-46235151D01*
X95072989Y-46189396D01*
X95142147Y-46179452D01*
X95205703Y-46208477D01*
X95239061Y-46254738D01*
X95290602Y-46379172D01*
X95290609Y-46379185D01*
X95378210Y-46510288D01*
X95378213Y-46510292D01*
X95489707Y-46621786D01*
X95489711Y-46621789D01*
X95620814Y-46709390D01*
X95620827Y-46709397D01*
X95694013Y-46739711D01*
X95766503Y-46769737D01*
X95921153Y-46800499D01*
X95921156Y-46800500D01*
X95921158Y-46800500D01*
X96078844Y-46800500D01*
X96078845Y-46800499D01*
X96233497Y-46769737D01*
X96379179Y-46709394D01*
X96510289Y-46621789D01*
X96621789Y-46510289D01*
X96709394Y-46379179D01*
X96769737Y-46233497D01*
X96800500Y-46078842D01*
X96800500Y-45921158D01*
X96800500Y-45921155D01*
X96800499Y-45921153D01*
X96769738Y-45766510D01*
X96769737Y-45766503D01*
X96760938Y-45745261D01*
X96709397Y-45620827D01*
X96709390Y-45620814D01*
X96621789Y-45489711D01*
X96621786Y-45489707D01*
X96510292Y-45378213D01*
X96510288Y-45378210D01*
X96379185Y-45290609D01*
X96379173Y-45290602D01*
X96352674Y-45279627D01*
X96233501Y-45230264D01*
X96233489Y-45230261D01*
X96078845Y-45199500D01*
X96078842Y-45199500D01*
X95921158Y-45199500D01*
X95921155Y-45199500D01*
X95766510Y-45230261D01*
X95766498Y-45230264D01*
X95620827Y-45290602D01*
X95620814Y-45290609D01*
X95489711Y-45378210D01*
X95489707Y-45378213D01*
X95378213Y-45489707D01*
X95378210Y-45489711D01*
X95290609Y-45620814D01*
X95290602Y-45620827D01*
X95239061Y-45745261D01*
X95195220Y-45799665D01*
X95128926Y-45821730D01*
X95061227Y-45804451D01*
X95013616Y-45753314D01*
X95000500Y-45697809D01*
X95000500Y-45171153D01*
X103449500Y-45171153D01*
X103449500Y-45328846D01*
X103480261Y-45483489D01*
X103480264Y-45483501D01*
X103540602Y-45629172D01*
X103540609Y-45629185D01*
X103628210Y-45760288D01*
X103628213Y-45760292D01*
X103739707Y-45871786D01*
X103739711Y-45871789D01*
X103870814Y-45959390D01*
X103870827Y-45959397D01*
X104016498Y-46019735D01*
X104016503Y-46019737D01*
X104171153Y-46050499D01*
X104171156Y-46050500D01*
X104171158Y-46050500D01*
X104328844Y-46050500D01*
X104328845Y-46050499D01*
X104483497Y-46019737D01*
X104629179Y-45959394D01*
X104686411Y-45921153D01*
X105199500Y-45921153D01*
X105199500Y-46078846D01*
X105230261Y-46233489D01*
X105230264Y-46233501D01*
X105290602Y-46379172D01*
X105290609Y-46379185D01*
X105378210Y-46510288D01*
X105378213Y-46510292D01*
X105489707Y-46621786D01*
X105489711Y-46621789D01*
X105620814Y-46709390D01*
X105620827Y-46709397D01*
X105694013Y-46739711D01*
X105766503Y-46769737D01*
X105921153Y-46800499D01*
X105921156Y-46800500D01*
X105921158Y-46800500D01*
X106078844Y-46800500D01*
X106078845Y-46800499D01*
X106233497Y-46769737D01*
X106379179Y-46709394D01*
X106510289Y-46621789D01*
X106621789Y-46510289D01*
X106709394Y-46379179D01*
X106769737Y-46233497D01*
X106800500Y-46078842D01*
X106800500Y-45921158D01*
X106800500Y-45921155D01*
X106800499Y-45921153D01*
X115199500Y-45921153D01*
X115199500Y-46078846D01*
X115230261Y-46233489D01*
X115230264Y-46233501D01*
X115290602Y-46379172D01*
X115290609Y-46379185D01*
X115378210Y-46510288D01*
X115378213Y-46510292D01*
X115489707Y-46621786D01*
X115489711Y-46621789D01*
X115620814Y-46709390D01*
X115620827Y-46709397D01*
X115694013Y-46739711D01*
X115766503Y-46769737D01*
X115921153Y-46800499D01*
X115921156Y-46800500D01*
X115921158Y-46800500D01*
X116078844Y-46800500D01*
X116078845Y-46800499D01*
X116233497Y-46769737D01*
X116379179Y-46709394D01*
X116510289Y-46621789D01*
X116621789Y-46510289D01*
X116709394Y-46379179D01*
X116769737Y-46233497D01*
X116800500Y-46078842D01*
X116800500Y-45921158D01*
X116800500Y-45921155D01*
X116800499Y-45921153D01*
X125199500Y-45921153D01*
X125199500Y-46078846D01*
X125230261Y-46233489D01*
X125230264Y-46233501D01*
X125290602Y-46379172D01*
X125290609Y-46379185D01*
X125378210Y-46510288D01*
X125378213Y-46510292D01*
X125489707Y-46621786D01*
X125489711Y-46621789D01*
X125620814Y-46709390D01*
X125620827Y-46709397D01*
X125694013Y-46739711D01*
X125766503Y-46769737D01*
X125921153Y-46800499D01*
X125921156Y-46800500D01*
X125921158Y-46800500D01*
X126078844Y-46800500D01*
X126078845Y-46800499D01*
X126233497Y-46769737D01*
X126379179Y-46709394D01*
X126510289Y-46621789D01*
X126621789Y-46510289D01*
X126709394Y-46379179D01*
X126769737Y-46233497D01*
X126800500Y-46078842D01*
X126800500Y-45921158D01*
X126800500Y-45921155D01*
X126800499Y-45921153D01*
X126769738Y-45766510D01*
X126769737Y-45766503D01*
X126760938Y-45745261D01*
X126709397Y-45620827D01*
X126709390Y-45620814D01*
X126621789Y-45489711D01*
X126621786Y-45489707D01*
X126510292Y-45378213D01*
X126510288Y-45378210D01*
X126379185Y-45290609D01*
X126379172Y-45290602D01*
X126233501Y-45230264D01*
X126233489Y-45230261D01*
X126078845Y-45199500D01*
X126078842Y-45199500D01*
X125921158Y-45199500D01*
X125921155Y-45199500D01*
X125766510Y-45230261D01*
X125766498Y-45230264D01*
X125620827Y-45290602D01*
X125620814Y-45290609D01*
X125489711Y-45378210D01*
X125489707Y-45378213D01*
X125378213Y-45489707D01*
X125378210Y-45489711D01*
X125290609Y-45620814D01*
X125290602Y-45620827D01*
X125230264Y-45766498D01*
X125230261Y-45766510D01*
X125199500Y-45921153D01*
X116800499Y-45921153D01*
X116769738Y-45766510D01*
X116769737Y-45766503D01*
X116760938Y-45745261D01*
X116709397Y-45620827D01*
X116709390Y-45620814D01*
X116621789Y-45489711D01*
X116621786Y-45489707D01*
X116510292Y-45378213D01*
X116510288Y-45378210D01*
X116379185Y-45290609D01*
X116379172Y-45290602D01*
X116233501Y-45230264D01*
X116233489Y-45230261D01*
X116078845Y-45199500D01*
X116078842Y-45199500D01*
X115921158Y-45199500D01*
X115921155Y-45199500D01*
X115766510Y-45230261D01*
X115766498Y-45230264D01*
X115620827Y-45290602D01*
X115620814Y-45290609D01*
X115489711Y-45378210D01*
X115489707Y-45378213D01*
X115378213Y-45489707D01*
X115378210Y-45489711D01*
X115290609Y-45620814D01*
X115290602Y-45620827D01*
X115230264Y-45766498D01*
X115230261Y-45766510D01*
X115199500Y-45921153D01*
X106800499Y-45921153D01*
X106769738Y-45766510D01*
X106769737Y-45766503D01*
X106760938Y-45745261D01*
X106709397Y-45620827D01*
X106709390Y-45620814D01*
X106621789Y-45489711D01*
X106621786Y-45489707D01*
X106510292Y-45378213D01*
X106510288Y-45378210D01*
X106379185Y-45290609D01*
X106379172Y-45290602D01*
X106233501Y-45230264D01*
X106233489Y-45230261D01*
X106078845Y-45199500D01*
X106078842Y-45199500D01*
X105921158Y-45199500D01*
X105921155Y-45199500D01*
X105766510Y-45230261D01*
X105766498Y-45230264D01*
X105620827Y-45290602D01*
X105620814Y-45290609D01*
X105489711Y-45378210D01*
X105489707Y-45378213D01*
X105378213Y-45489707D01*
X105378210Y-45489711D01*
X105290609Y-45620814D01*
X105290602Y-45620827D01*
X105230264Y-45766498D01*
X105230261Y-45766510D01*
X105199500Y-45921153D01*
X104686411Y-45921153D01*
X104760289Y-45871789D01*
X104760292Y-45871786D01*
X104804694Y-45827385D01*
X104871786Y-45760292D01*
X104871789Y-45760289D01*
X104959394Y-45629179D01*
X104962854Y-45620827D01*
X105017163Y-45489711D01*
X105019737Y-45483497D01*
X105050500Y-45328842D01*
X105050500Y-45171158D01*
X105050500Y-45171155D01*
X105050499Y-45171153D01*
X105019738Y-45016510D01*
X105019737Y-45016503D01*
X105019735Y-45016498D01*
X104959397Y-44870827D01*
X104959390Y-44870814D01*
X104871789Y-44739711D01*
X104871786Y-44739707D01*
X104760292Y-44628213D01*
X104760288Y-44628210D01*
X104629185Y-44540609D01*
X104629172Y-44540602D01*
X104483501Y-44480264D01*
X104483489Y-44480261D01*
X104328845Y-44449500D01*
X104328842Y-44449500D01*
X104171158Y-44449500D01*
X104171155Y-44449500D01*
X104016510Y-44480261D01*
X104016498Y-44480264D01*
X103870827Y-44540602D01*
X103870814Y-44540609D01*
X103739711Y-44628210D01*
X103739707Y-44628213D01*
X103628213Y-44739707D01*
X103628210Y-44739711D01*
X103540609Y-44870814D01*
X103540602Y-44870827D01*
X103480264Y-45016498D01*
X103480261Y-45016510D01*
X103449500Y-45171153D01*
X95000500Y-45171153D01*
X95000500Y-43421153D01*
X170199500Y-43421153D01*
X170199500Y-43578846D01*
X170230261Y-43733489D01*
X170230264Y-43733501D01*
X170290602Y-43879172D01*
X170290609Y-43879185D01*
X170378210Y-44010288D01*
X170378213Y-44010292D01*
X170489707Y-44121786D01*
X170489711Y-44121789D01*
X170620814Y-44209390D01*
X170620827Y-44209397D01*
X170766498Y-44269735D01*
X170766503Y-44269737D01*
X170921153Y-44300499D01*
X170921156Y-44300500D01*
X170921158Y-44300500D01*
X171078844Y-44300500D01*
X171078845Y-44300499D01*
X171233497Y-44269737D01*
X171379179Y-44209394D01*
X171510289Y-44121789D01*
X171621789Y-44010289D01*
X171709394Y-43879179D01*
X171769737Y-43733497D01*
X171800500Y-43578842D01*
X171800500Y-43421158D01*
X171800500Y-43421155D01*
X171800499Y-43421153D01*
X171769738Y-43266510D01*
X171769737Y-43266503D01*
X171769735Y-43266498D01*
X171709397Y-43120827D01*
X171709390Y-43120814D01*
X171621789Y-42989711D01*
X171621786Y-42989707D01*
X171510292Y-42878213D01*
X171510288Y-42878210D01*
X171379185Y-42790609D01*
X171379172Y-42790602D01*
X171233501Y-42730264D01*
X171233489Y-42730261D01*
X171078845Y-42699500D01*
X171078842Y-42699500D01*
X170921158Y-42699500D01*
X170921155Y-42699500D01*
X170766510Y-42730261D01*
X170766498Y-42730264D01*
X170620827Y-42790602D01*
X170620814Y-42790609D01*
X170489711Y-42878210D01*
X170489707Y-42878213D01*
X170378213Y-42989707D01*
X170378210Y-42989711D01*
X170290609Y-43120814D01*
X170290602Y-43120827D01*
X170230264Y-43266498D01*
X170230261Y-43266510D01*
X170199500Y-43421153D01*
X95000500Y-43421153D01*
X95000500Y-41921153D01*
X97794500Y-41921153D01*
X97794500Y-42078846D01*
X97825261Y-42233489D01*
X97825264Y-42233501D01*
X97885602Y-42379172D01*
X97885609Y-42379185D01*
X97973210Y-42510288D01*
X97973213Y-42510292D01*
X98084707Y-42621786D01*
X98084711Y-42621789D01*
X98215814Y-42709390D01*
X98215827Y-42709397D01*
X98361498Y-42769735D01*
X98361503Y-42769737D01*
X98516153Y-42800499D01*
X98516156Y-42800500D01*
X98516158Y-42800500D01*
X98673844Y-42800500D01*
X98673845Y-42800499D01*
X98828497Y-42769737D01*
X98974179Y-42709394D01*
X99105289Y-42621789D01*
X99105292Y-42621786D01*
X99142319Y-42584760D01*
X99203642Y-42551275D01*
X99273334Y-42556259D01*
X99317681Y-42584760D01*
X99354707Y-42621786D01*
X99354711Y-42621789D01*
X99485814Y-42709390D01*
X99485827Y-42709397D01*
X99631498Y-42769735D01*
X99631503Y-42769737D01*
X99786153Y-42800499D01*
X99786156Y-42800500D01*
X99786158Y-42800500D01*
X99943844Y-42800500D01*
X99943845Y-42800499D01*
X100098497Y-42769737D01*
X100244179Y-42709394D01*
X100375289Y-42621789D01*
X100375292Y-42621786D01*
X100412319Y-42584760D01*
X100473642Y-42551275D01*
X100543334Y-42556259D01*
X100587681Y-42584760D01*
X100624707Y-42621786D01*
X100624711Y-42621789D01*
X100755814Y-42709390D01*
X100755827Y-42709397D01*
X100901498Y-42769735D01*
X100901503Y-42769737D01*
X101056153Y-42800499D01*
X101056156Y-42800500D01*
X101056158Y-42800500D01*
X101213844Y-42800500D01*
X101213845Y-42800499D01*
X101368497Y-42769737D01*
X101514179Y-42709394D01*
X101645289Y-42621789D01*
X101645292Y-42621786D01*
X101682319Y-42584760D01*
X101743642Y-42551275D01*
X101813334Y-42556259D01*
X101857681Y-42584760D01*
X101894707Y-42621786D01*
X101894711Y-42621789D01*
X102025814Y-42709390D01*
X102025827Y-42709397D01*
X102171498Y-42769735D01*
X102171503Y-42769737D01*
X102326153Y-42800499D01*
X102326156Y-42800500D01*
X102326158Y-42800500D01*
X102483844Y-42800500D01*
X102483845Y-42800499D01*
X102638497Y-42769737D01*
X102784179Y-42709394D01*
X102915289Y-42621789D01*
X103026789Y-42510289D01*
X103114394Y-42379179D01*
X103174737Y-42233497D01*
X103205500Y-42078842D01*
X103205500Y-41921158D01*
X103205500Y-41921155D01*
X103205499Y-41921153D01*
X103174738Y-41766510D01*
X103174737Y-41766503D01*
X103174735Y-41766498D01*
X103114397Y-41620827D01*
X103114390Y-41620814D01*
X103026789Y-41489711D01*
X103026786Y-41489707D01*
X102915292Y-41378213D01*
X102915288Y-41378210D01*
X102784185Y-41290609D01*
X102784172Y-41290602D01*
X102638501Y-41230264D01*
X102638489Y-41230261D01*
X102483845Y-41199500D01*
X102483842Y-41199500D01*
X102326158Y-41199500D01*
X102326155Y-41199500D01*
X102171510Y-41230261D01*
X102171498Y-41230264D01*
X102025827Y-41290602D01*
X102025814Y-41290609D01*
X101894711Y-41378210D01*
X101894707Y-41378213D01*
X101857681Y-41415240D01*
X101796358Y-41448725D01*
X101726666Y-41443741D01*
X101682319Y-41415240D01*
X101645292Y-41378213D01*
X101645288Y-41378210D01*
X101514185Y-41290609D01*
X101514172Y-41290602D01*
X101368501Y-41230264D01*
X101368489Y-41230261D01*
X101213845Y-41199500D01*
X101213842Y-41199500D01*
X101056158Y-41199500D01*
X101056155Y-41199500D01*
X100901510Y-41230261D01*
X100901498Y-41230264D01*
X100755827Y-41290602D01*
X100755814Y-41290609D01*
X100624711Y-41378210D01*
X100624707Y-41378213D01*
X100587681Y-41415240D01*
X100526358Y-41448725D01*
X100456666Y-41443741D01*
X100412319Y-41415240D01*
X100375292Y-41378213D01*
X100375288Y-41378210D01*
X100244185Y-41290609D01*
X100244172Y-41290602D01*
X100098501Y-41230264D01*
X100098489Y-41230261D01*
X99943845Y-41199500D01*
X99943842Y-41199500D01*
X99786158Y-41199500D01*
X99786155Y-41199500D01*
X99631510Y-41230261D01*
X99631498Y-41230264D01*
X99485827Y-41290602D01*
X99485814Y-41290609D01*
X99354711Y-41378210D01*
X99354707Y-41378213D01*
X99317681Y-41415240D01*
X99256358Y-41448725D01*
X99186666Y-41443741D01*
X99142319Y-41415240D01*
X99105292Y-41378213D01*
X99105288Y-41378210D01*
X98974185Y-41290609D01*
X98974172Y-41290602D01*
X98828501Y-41230264D01*
X98828489Y-41230261D01*
X98673845Y-41199500D01*
X98673842Y-41199500D01*
X98516158Y-41199500D01*
X98516155Y-41199500D01*
X98361510Y-41230261D01*
X98361498Y-41230264D01*
X98215827Y-41290602D01*
X98215814Y-41290609D01*
X98084711Y-41378210D01*
X98084707Y-41378213D01*
X97973213Y-41489707D01*
X97973210Y-41489711D01*
X97885609Y-41620814D01*
X97885602Y-41620827D01*
X97825264Y-41766498D01*
X97825261Y-41766510D01*
X97794500Y-41921153D01*
X95000500Y-41921153D01*
X95000500Y-39624500D01*
X95020185Y-39557461D01*
X95072989Y-39511706D01*
X95124500Y-39500500D01*
X173875500Y-39500500D01*
X173942539Y-39520185D01*
G37*
%TD.AperFunction*%
%TD*%
M02*
